<svg xmlns="http://www.w3.org/2000/svg" xmlns:xlink="http://www.w3.org/1999/xlink" version="1.1" width="1000" height="1000" viewBox="0 0 1000 1000" xml:space="preserve">
<desc>Created with Fabric.js 3.5.0</desc>
<defs>
</defs>
<rect x="0" y="0" width="100%" height="100%" fill="rgba(255,255,255,0)"/>
<g transform="matrix(3.7404 0 0 3.7404 500 500)" id="242014">
<path style="stroke: none; stroke-width: 1; stroke-dasharray: none; stroke-linecap: butt; stroke-dashoffset: 0; stroke-linejoin: miter; stroke-miterlimit: 4; is-custom-font: none; font-file-url: none; fill: rgb(211,255,166); fill-rule: nonzero; opacity: 1;" vector-effect="non-scaling-stroke" transform=" translate(-8.562, 5.7917)" d="M 48.8 -90.2 C 59.7 -78.3 62.3 -57.9 77.8 -41.5 C 93.3 -25 121.7 -12.5 128.4 3.9 C 135.2 20.3 120.4 40.7 102.3 52.5 C 84.1 64.3 62.6 67.7 44.9 71.8 C 27.3 76 13.7 81 -3.6 87.2 C -20.8 93.4 -41.7 100.8 -54.4 93.8 C -67.1 86.8 -71.6 65.4 -81.6 47.4 C -91.5 29.3 -106.7 14.7 -111.4 -2.7 C -116 -20 -109.9 -40 -100.1 -58.2 C -90.3 -76.4 -76.6 -92.7 -59.3 -100.9 C -42 -109.1 -21 -109 -1 -107.3 C 19 -105.6 38 -102.2 48.8 -90.2" stroke-linecap="round"/>
</g>
</svg>