<svg id="visual" viewBox="0 0 900 600" width="600" height="600" xmlns="http://www.w3.org/2000/svg" xmlns:xlink="http://www.w3.org/1999/xlink" version="1.1"><g transform="translate(502.4214600517332 279.39394465417143)"><path d="M171.9 -286.5C212.2 -274.6 226.9 -207 238.2 -150C249.4 -93 257.2 -46.5 244.6 -7.3C232.1 32 199.2 64 192.5 129C185.9 193.9 205.4 291.8 177.7 328.5C150 365.1 75 340.6 10.5 322.4C-54 304.2 -108 292.4 -166.2 273.3C-224.3 254.2 -286.7 227.9 -322.8 181.1C-359 134.3 -369 67.2 -335.2 19.5C-301.4 -28.1 -223.8 -56.3 -197 -119.3C-170.3 -182.4 -194.4 -280.4 -170 -301.5C-145.7 -322.6 -72.8 -266.8 -3.5 -260.8C65.8 -254.7 131.7 -298.4 171.9 -286.5" fill="none" stroke="#ffffff" stroke-width="7"></path></g></svg>