<svg xmlns="http://www.w3.org/2000/svg" xmlns:xlink="http://www.w3.org/1999/xlink" version="1.1" width="1000" height="1000" viewBox="0 0 1000 1000" xml:space="preserve">
<desc>Created with Fabric.js 3.5.0</desc>
<defs>
</defs>
<rect x="0" y="0" width="100%" height="100%" fill="rgba(255,255,255,0)"/>
<g transform="matrix(2.2733 0 0 2.2733 500.12 500.116)" id="123473">
<g style="" vector-effect="non-scaling-stroke">
		<g transform="matrix(1 0 0 1 14.3982 -25.8868)" id="path0">
<path style="stroke: none; stroke-width: 1; stroke-dasharray: none; stroke-linecap: butt; stroke-dashoffset: 0; stroke-linejoin: miter; stroke-miterlimit: 4; is-custom-font: none; font-file-url: none; fill: rgb(4,4,4); fill-rule: evenodd; opacity: 1;" transform=" translate(-214.3983, -167.3564)" d="M 157.675 87.584 C 157.11 88.799 141.205 174.167 141.212 175.946 C 141.221 178.379 139.638 177.315 197.329 213.652 C 255.763 250.459 253.957 249.401 255.105 247.466 C 256.722 244.742 287.549 152.558 287.586 150.338 C 287.654 146.21 285.381 142.221 281.964 140.471 C 277.415 138.142 159.855 86.486 159.103 86.486 C 158.397 86.486 158.067 86.741 157.675 87.584 M 163.787 133.117 C 167.266 135.237 165.7 140.541 161.596 140.541 C 158.274 140.541 156.516 136.678 158.672 134.116 C 160.186 132.316 161.918 131.977 163.787 133.117 M 160.753 133.53 C 160.192 134.545 160.246 137.778 160.843 139.025 C 162.104 141.656 163.647 139.08 162.911 135.572 C 162.335 132.827 161.551 132.085 160.753 133.53 M 168.317 137.843 C 171.098 137.855 172.425 139.704 171.308 142.011 C 170.551 143.574 170.408 144.595 170.946 144.595 C 171.132 144.595 171.284 144.203 171.284 143.724 C 171.284 141.436 174.358 140.18 176.605 141.55 C 178.6 142.767 177.866 144.257 175.27 144.257 C 173.445 144.257 173.48 144.212 174.118 145.739 C 174.877 147.556 175.885 147.546 176.966 145.709 C 179.572 141.284 180.218 140.994 182.494 143.225 C 183.503 144.214 184.083 144.545 184.547 144.398 C 185.52 144.089 184.673 145.525 183.591 146.018 C 182.499 146.516 181.549 145.989 180.295 144.192 C 179.634 143.246 179.231 142.931 178.989 143.173 C 178.746 143.416 178.807 143.765 179.184 144.303 C 179.484 144.732 179.73 145.329 179.73 145.629 C 179.73 145.93 180.129 146.357 180.618 146.58 C 181.107 146.803 181.408 147.083 181.288 147.203 C 181.168 147.323 180.89 147.241 180.67 147.021 C 179.974 146.325 179.547 146.579 178.789 148.139 L 178.052 149.657 L 176.854 149.085 C 176.14 148.745 175.723 148.336 175.824 148.074 C 175.935 147.786 175.701 147.635 175.142 147.635 C 174.024 147.635 172.47 146.813 171.812 145.874 C 171.46 145.371 170.884 145.097 170.073 145.045 C 167.772 144.897 167.237 143.371 168.721 141.186 C 169.77 139.642 169.932 138.742 169.188 138.588 C 168.766 138.502 168.29 139.108 167.41 140.857 C 166.064 143.529 166.202 143.428 164.848 142.728 C 163.607 142.086 163.579 142.31 165.283 139.156 C 166.457 136.982 166.759 136.625 166.961 137.171 C 167.138 137.648 167.524 137.839 168.317 137.843 M 173.854 141.751 C 173.326 143.125 173.784 144.105 174.774 143.725 C 175.493 143.449 175.735 142.634 175.325 141.867 C 174.903 141.079 174.135 141.018 173.854 141.751 M 188.07 147.618 C 188.662 147.979 189.313 148.587 189.517 148.968 C 189.791 149.48 190.223 149.662 191.161 149.662 C 193.408 149.662 193.885 151.148 192.407 153.547 C 191.471 155.067 191.32 156.081 192.03 156.081 C 192.291 156.081 193.068 155.055 193.754 153.801 C 194.441 152.546 195.049 151.471 195.105 151.411 C 195.241 151.266 197.297 152.334 197.297 152.55 C 197.297 153.529 194.464 158.173 194.239 157.563 C 194.039 157.022 193.601 156.809 192.413 156.675 C 189.583 156.356 188.723 154.442 190.249 151.856 C 190.783 150.951 190.872 150.534 190.591 150.253 C 190.31 149.972 190.155 150.155 189.994 150.957 C 189.33 154.277 184.27 154.54 183.146 151.313 C 182.124 148.384 185.352 145.962 188.07 147.618 M 185.604 148.172 C 185.323 149.29 185.668 152.695 186.106 153.134 C 187.309 154.336 188.033 150.955 187.129 148.361 C 186.68 147.072 185.904 146.976 185.604 148.172 M 199.567 154.059 C 201.048 154.065 201.434 154.269 202 155.343 C 202.331 155.972 202.507 156.046 202.895 155.724 C 203.536 155.192 203.511 155.741 202.852 156.682 C 201.822 158.152 200.345 157.415 200.327 155.422 C 200.314 153.947 199.866 154.405 198.279 157.517 C 197.162 159.706 197.272 159.638 195.935 158.947 L 194.943 158.434 L 196.365 155.566 C 197.526 153.226 197.834 152.823 198.038 153.376 C 198.228 153.89 198.599 154.055 199.567 154.059 M 205.822 156.419 C 206.262 156.419 206.824 156.229 207.071 155.997 C 207.44 155.65 207.481 155.737 207.304 156.49 C 207.136 157.206 207.243 157.488 207.796 157.784 C 208.185 157.992 208.418 158.248 208.314 158.353 C 208.21 158.457 207.875 158.335 207.571 158.083 C 207.028 157.632 206.063 158.337 205.685 159.461 C 205.624 159.643 205.118 159.82 204.561 159.856 C 204.003 159.891 203.35 160.069 203.109 160.251 C 202.395 160.79 203.327 161.131 204.448 160.741 C 206.155 160.146 207.094 161.816 205.923 163.364 C 205.449 163.991 205.426 163.992 205.416 163.392 C 205.408 162.906 205.229 162.809 204.623 162.961 C 202.413 163.516 201.841 161.491 203.359 158.484 C 204.135 156.947 204.265 156.422 203.95 156.088 C 203.627 155.745 203.693 155.735 204.285 156.04 C 204.691 156.248 205.383 156.419 205.822 156.419 M 212.038 160.01 C 214.624 161.237 213.906 163.487 211.073 163.034 C 209.562 162.792 209.237 163.967 210.473 165.203 C 211.398 166.127 212.838 166.112 212.838 165.177 C 212.838 163.048 216.001 161.856 218.159 163.172 C 220.154 164.389 219.42 165.878 216.824 165.878 C 215.932 165.878 215.203 165.959 215.203 166.058 C 215.203 166.829 216.277 168.518 216.865 168.672 C 217.637 168.874 217.801 168.693 219.399 165.878 C 219.874 165.042 220.264 164.608 220.266 164.913 C 220.271 165.586 220.951 165.878 222.509 165.878 C 224.892 165.878 225.972 168.044 224.661 170.194 C 223.852 171.522 223.797 172.297 224.513 172.297 C 224.803 172.297 224.946 172.449 224.831 172.635 C 224.514 173.149 222.879 173.039 222.035 172.447 C 221.013 171.732 221.091 170.799 222.333 168.863 C 223.347 167.284 223.454 166.01 222.55 166.291 C 222.318 166.363 221.553 167.511 220.851 168.842 L 219.573 171.262 L 218.391 170.699 C 217.689 170.364 217.278 169.957 217.378 169.696 C 217.491 169.402 217.242 169.256 216.628 169.255 C 215.417 169.254 213.596 168.119 213.117 167.068 C 212.822 166.419 212.56 166.273 211.96 166.424 C 207.816 167.464 205.414 161.617 209.29 159.928 C 210.6 159.357 210.666 159.359 212.038 160.01 M 210.023 160.023 C 209.899 160.146 209.797 160.765 209.797 161.397 C 209.797 162.806 211.231 162.942 211.428 161.552 C 211.587 160.427 210.644 159.401 210.023 160.023 M 215.408 163.372 C 214.88 164.746 215.338 165.727 216.329 165.347 C 217.047 165.071 217.289 164.255 216.879 163.489 C 216.457 162.701 215.689 162.64 215.408 163.372 M 233.256 169.632 C 233.865 170.355 234.346 170.628 234.801 170.509 C 235.342 170.368 235.404 170.443 235.148 170.922 C 234.613 171.921 233.823 172.384 232.941 172.215 C 231.987 172.033 231.846 172.346 232.601 172.973 C 232.88 173.204 233.108 173.857 233.108 174.424 C 233.108 176.968 230.188 177.6 228.45 175.433 C 227.533 174.29 227.388 174.222 226.832 174.673 C 226.293 175.111 226.255 175.109 226.507 174.662 C 227.907 172.174 229.961 172.331 230.644 174.977 C 230.97 176.24 231.757 176.799 231.757 175.768 C 231.757 175.416 231.073 174.327 230.236 173.347 C 228.561 171.385 228.339 170.309 229.392 169.257 C 230.458 168.191 232.185 168.359 233.256 169.632 M 230.068 169.379 C 230.068 169.663 230.446 170.321 230.908 170.843 L 231.748 171.791 L 231.303 170.458 C 230.853 169.113 230.068 168.426 230.068 169.379 M 236.412 172.66 C 237.165 172.922 237.649 172.917 238.163 172.642 C 238.808 172.297 238.855 172.335 238.672 173.063 C 238.517 173.679 238.651 173.951 239.252 174.24 C 239.756 174.483 239.848 174.625 239.51 174.639 C 239.222 174.652 238.825 174.5 238.627 174.303 C 238.373 174.049 238.063 174.29 237.57 175.126 C 236.995 176.101 236.647 176.326 235.582 176.414 C 233.753 176.564 234.148 177.196 236.07 177.196 C 237.864 177.196 238.457 178.443 237.357 179.899 C 236.901 180.501 236.845 180.51 236.835 179.983 C 236.827 179.557 236.548 179.392 235.835 179.392 C 233.62 179.392 233.221 177.564 234.808 174.685 C 235.576 173.29 235.717 172.784 235.393 172.578 C 234.799 172.201 235.186 172.232 236.412 172.66 M 241.576 175.35 C 242.518 175.854 242.426 177.644 241.385 179.054 C 240.441 180.334 240.261 181.757 241.043 181.757 C 241.327 181.757 242.065 180.726 242.736 179.392 C 244.004 176.875 244.09 176.812 245.423 177.419 C 246.54 177.928 246.542 177.92 244.768 181.173 C 243.847 182.862 243.25 183.669 243.248 183.229 C 243.243 182.41 242.652 182.095 241.126 182.095 C 238.782 182.095 237.829 179.735 239.246 177.442 C 239.919 176.353 239.933 176.223 239.42 175.848 C 238.346 175.063 240.227 174.628 241.576 175.35 M 253.031 181.468 C 253.007 182.528 250.096 187.23 249.908 186.511 C 249.762 185.949 249.457 185.811 248.368 185.811 C 246.542 185.811 244.932 184.283 244.932 182.549 C 244.932 180.115 248.316 178.374 250.031 179.927 C 250.574 180.418 250.653 180.404 251.002 179.751 C 251.416 178.978 253.055 180.365 253.031 181.468 M 247.795 181.099 C 247.217 182.216 247.224 185.325 247.804 185.275 C 248.478 185.217 250.306 181.315 249.961 180.67 C 249.458 179.73 248.394 179.941 247.795 181.099 M 255.668 180.931 C 257.015 181.875 256.262 183.749 254.7 183.34 C 254.033 183.166 254.025 183.191 254.552 183.774 C 255.076 184.353 253.583 188.514 252.85 188.514 C 252.563 188.514 250.676 187.498 250.676 187.343 C 250.676 186.733 253.34 182.46 253.495 182.822 C 253.602 183.072 253.608 182.881 253.509 182.397 C 253.194 180.855 254.395 180.04 255.668 180.931 M 258.944 184.456 C 260.304 184.973 261.485 186.444 261.495 187.634 C 261.504 188.62 261.567 188.567 262.558 186.74 C 263.766 184.515 263.798 184.504 265.762 185.655 L 267.226 186.513 L 264.811 191.145 C 261.825 196.873 262.224 196.498 260.213 195.479 L 258.52 194.621 L 259.885 191.989 C 261.064 189.716 261.137 189.462 260.417 190.118 C 259.342 191.1 258.266 191.17 258.772 190.225 C 259.539 188.792 258.794 184.628 257.77 184.628 C 257.012 184.628 256.87 188.965 257.593 190.068 C 258.351 191.225 257.187 191.197 255.794 190.025 C 252.99 187.665 255.537 183.161 258.944 184.456" stroke-linecap="round"/>
</g>
		<g transform="matrix(1 0 0 1 1.5103 11.9775)" id="path1">
<path style="stroke: none; stroke-width: 1; stroke-dasharray: none; stroke-linecap: butt; stroke-dashoffset: 0; stroke-linejoin: miter; stroke-miterlimit: 4; is-custom-font: none; font-file-url: none; fill: rgb(210,166,255); fill-rule: evenodd; opacity: 1;" transform=" translate(-201.5103, -205.2208)" d="M 213.851 26.58 C 165.22 31.544 126.709 42.548 88.931 62.274 C 57.653 78.607 39.647 94.472 29.372 114.753 C 14.732 143.65 16.657 178.609 34.364 205.405 C 36.85 209.168 45.783 221.81 46.6 222.722 C 46.726 222.863 47.657 222.541 48.668 222.007 C 49.679 221.473 68.678 213.166 90.887 203.547 L 131.268 186.058 L 140.318 134.668 C 147.676 92.89 149.526 82.948 150.21 81.515 C 152.057 77.648 157.223 74.839 162.5 74.834 L 165.372 74.831 L 204.665 91.47 C 226.276 100.621 244.002 108.108 244.056 108.108 C 244.111 108.108 244.249 106.68 244.363 104.934 C 244.677 100.155 245.431 95.441 247.639 84.459 C 252.767 58.945 252.781 47.848 247.698 38.049 C 243.076 29.137 230.511 24.88 213.851 26.58 M 296.028 161.746 C 295.902 162.068 287.274 186.237 276.855 215.455 L 257.912 268.579 L 215.632 297.916 C 192.378 314.052 172.468 327.648 171.389 328.129 C 163.333 331.717 153.534 330.432 146.88 324.913 C 145.716 323.948 125.836 306.728 102.703 286.647 C 55.944 246.058 59.722 249.246 60.164 250.754 C 62.715 259.456 62.99 274.518 60.98 295.439 C 57.321 333.534 58.961 348.402 68.519 363.788 C 81.526 384.727 99.881 389.428 126.297 378.587 C 148.334 369.544 158.487 361.913 168.154 347.128 C 177.465 332.886 179.306 330.463 185.625 324.125 C 197.24 312.477 211.782 304.512 228.068 300.879 C 235.628 299.192 239.543 298.928 261.149 298.643 C 283.322 298.351 285.475 298.184 296.284 295.919 C 330.837 288.677 363.708 263.88 378.185 234.135 C 387.257 215.495 384.35 196.445 370.946 186.704 C 365.419 182.687 363.26 181.908 323.986 169.764 C 309.215 165.196 296.933 161.392 296.693 161.31 C 296.454 161.227 296.155 161.424 296.028 161.746" stroke-linecap="round"/>
</g>
		<g transform="matrix(1 0 0 1 -27.3526 9.1176)" id="path2">
<path style="stroke: none; stroke-width: 1; stroke-dasharray: none; stroke-linecap: butt; stroke-dashoffset: 0; stroke-linejoin: miter; stroke-miterlimit: 4; is-custom-font: none; font-file-url: none; fill: rgb(234,239,231); fill-rule: evenodd; opacity: 1;" transform=" translate(-172.6474, -202.3608)" d="M 157.364 75.786 C 153.195 77.397 151.094 79.172 149.877 82.113 C 149.612 82.753 145.317 106.403 140.332 134.668 L 131.268 186.058 L 92.408 202.894 C 71.034 212.153 52.179 220.357 50.507 221.124 C 45.431 223.453 44.425 225.225 44.661 231.415 C 44.854 236.465 44.91 236.546 53.238 243.753 C 57.101 247.096 79.274 266.329 102.512 286.494 C 125.75 306.659 145.716 323.947 146.88 324.913 C 153.533 330.432 163.333 331.717 171.389 328.129 C 172.468 327.648 192.377 314.052 215.631 297.917 L 257.911 268.579 L 277.118 214.779 C 287.682 185.19 297.246 158.395 298.373 155.236 C 302.242 144.386 301.29 137.791 294.932 131.409 C 291.66 128.124 292.779 128.667 266.047 117.394 C 253.412 112.066 225.591 100.318 204.223 91.286 C 159.444 72.359 163.103 73.57 157.364 75.786 M 226.351 101.855 C 260.076 116.105 288.665 128.286 289.883 128.923 C 297.852 133.093 301.501 142.835 298.408 151.689 C 297.856 153.269 288.316 180.049 277.207 211.2 L 257.008 267.84 L 215.244 296.828 C 165.872 331.095 168.834 329.355 160.521 328.972 C 152.21 328.589 155.948 331.454 97.264 280.483 C 45.416 235.449 45.758 235.763 46.01 233.49 C 46.108 232.605 49.428 235.419 95.27 275.24 C 151.641 324.206 148.108 321.203 151.187 322.765 C 158.111 326.275 166.797 326.041 173.311 322.168 C 174.333 321.56 193.484 308.561 215.869 293.28 L 256.569 265.498 L 276.607 209.016 C 287.629 177.951 296.866 151.622 297.136 150.507 C 299.08 142.459 294.874 133.121 287.578 129.287 C 285.803 128.354 166.207 77.664 161.993 76.058 C 161.089 75.714 161.199 75.687 163.007 75.808 C 164.785 75.928 172.55 79.121 226.351 101.855 M 223.633 103.21 C 257.338 117.452 285.834 129.568 286.956 130.134 C 293.834 133.606 298.285 143.817 295.985 150.845 C 295.268 153.034 255.977 264.008 255.87 264.147 C 255.816 264.216 249.687 260.427 242.251 255.727 C 231.514 248.941 228.807 247.089 229.102 246.732 C 230.014 245.634 219.795 238.838 218.16 239.455 C 216.813 239.964 164.023 206.947 165.019 206.219 C 166.052 205.464 165.449 204.847 160.432 201.534 L 155.337 198.169 L 154.316 198.755 C 153.34 199.315 153.247 199.313 152.238 198.711 C 149.427 197.034 133.226 186.711 132.864 186.367 C 132.338 185.866 150.231 83.951 151.173 82.084 C 152.988 78.489 157.12 76.38 160.989 77.073 C 161.738 77.207 189.927 88.969 223.633 103.21 M 156.174 85.823 C 153.601 87.131 154.07 85.124 145.254 132.623 C 136.867 177.815 136.87 177.793 138.137 179.828 C 138.692 180.72 244.891 248.095 249.218 250.3 C 251.053 251.235 254.107 250.585 255.63 248.934 C 256.503 247.988 255.276 251.493 273.755 197.128 L 288.682 153.209 L 288.682 150 C 288.682 145.108 286.48 141.416 282.293 139.29 C 275.837 136.011 160.422 85.368 159.122 85.243 C 158.016 85.137 157.212 85.295 156.174 85.823 M 219.978 112.783 C 252.798 127.284 280.348 139.476 281.2 139.877 C 285.432 141.866 287.669 145.367 287.669 150 L 287.669 152.872 L 271.622 200.099 C 254.97 249.104 254.88 249.341 253.167 248.743 C 251.539 248.176 143.16 179.805 142.152 178.71 C 140.55 176.968 140.384 178.115 148.823 132.48 C 157.353 86.349 157.442 85.952 159.207 86.239 C 159.81 86.337 187.157 98.282 219.978 112.783 M 156.099 88.396 C 154.995 92.305 139.826 175.871 140.027 176.94 C 140.154 177.619 140.772 178.662 141.492 179.414 C 142.45 180.416 242.015 243.505 250.676 248.599 C 252.139 249.46 252.162 249.497 251.284 249.599 C 250.061 249.74 255.242 252.923 194.595 214.758 C 136.421 178.15 139.011 179.844 138.487 178.061 C 137.919 176.13 154.068 89.515 155.297 87.9 C 156.339 86.531 156.583 86.682 156.099 88.396 M 142.335 193.891 C 150.774 199.231 152.703 200.588 152.703 201.19 C 152.703 202.429 163.082 209.155 163.697 208.314 C 164.444 207.292 216.336 240.267 216.493 241.864 C 216.691 243.876 227.703 250.646 227.703 248.757 C 227.703 248.484 227.9 248.31 228.142 248.37 C 228.76 248.524 254.727 264.991 254.728 265.23 C 254.731 265.582 173.267 321.022 171.318 321.994 C 163.547 325.874 154.044 324.589 147.097 318.719 C 142.979 315.239 52.64 236.81 49.697 234.159 C 45.205 230.112 44.644 226.689 48.008 223.844 C 49.127 222.899 130.832 187.16 131.609 187.277 C 131.806 187.307 136.633 190.283 142.335 193.891 M 119.679 196.375 C 118.332 196.952 117.235 197.51 117.241 197.614 C 117.253 197.831 145.669 217.235 146.67 217.71 C 147.332 218.024 152.027 216.082 152.027 215.494 C 152.027 215.265 122.469 195.232 122.229 195.298 C 122.174 195.314 121.026 195.798 119.679 196.375 M 124.161 197.852 C 126.365 199.316 126.322 199.153 124.723 199.969 L 123.433 200.627 L 121.519 199.384 C 119.288 197.937 119.225 197.763 120.693 197.125 C 122.172 196.482 122.064 196.46 124.161 197.852 M 100.155 204.855 C 91.058 208.799 83.322 212.138 82.965 212.275 C 82.443 212.475 88.796 217.374 114.995 236.977 L 147.676 261.431 L 145.544 262.621 C 144.372 263.276 143.146 263.912 142.821 264.036 C 142.496 264.16 142.23 264.376 142.23 264.516 C 142.23 264.745 159.564 278.143 161.103 279.104 C 161.629 279.432 162.226 279.23 164.734 277.874 C 169.303 275.405 172.297 273.6 172.297 273.314 C 172.297 273.173 169.394 270.904 165.846 268.272 L 159.394 263.486 L 157.574 264.513 C 155.425 265.726 155.263 265.743 154.158 264.874 L 153.31 264.207 L 155.617 262.762 C 158.416 261.01 157.084 260.451 165.885 267.065 C 169.96 270.129 173.419 272.635 173.571 272.635 C 174.06 272.635 199.833 256.541 199.767 256.277 C 199.719 256.083 140.114 214.025 119.749 199.814 L 116.695 197.683 L 100.155 204.855 M 118.295 200.084 C 120.358 201.483 120.387 201.4 117.392 202.706 L 114.852 203.813 L 113.17 202.667 C 111.068 201.234 111.043 201.341 113.767 200.094 C 116.631 198.784 116.378 198.785 118.295 200.084 M 163.605 206.25 C 162.794 207.366 162.999 207.44 158.352 204.348 C 153.169 200.901 153.44 201.183 154.368 200.194 L 155.147 199.365 L 159.675 202.396 L 164.204 205.427 L 163.605 206.25 M 128.909 201.03 C 130.713 202.271 130.704 202.196 129.155 202.99 L 127.905 203.632 L 126.29 202.576 C 124.366 201.319 124.358 201.288 125.76 200.59 C 127.23 199.858 127.199 199.854 128.909 201.03 M 114.317 204.791 L 115.627 205.733 L 113.326 206.765 L 111.025 207.797 L 109.313 206.608 C 106.921 204.946 105.545 203.801 105.743 203.638 C 105.836 203.562 106.824 203.112 107.939 202.64 L 109.966 201.78 L 111.486 202.815 C 112.323 203.384 113.596 204.273 114.317 204.791 M 122.922 203.38 C 124.689 204.661 124.747 204.508 121.96 205.912 L 119.596 207.102 L 117.7 205.844 L 115.805 204.585 L 118.122 203.503 C 121.026 202.147 121.213 202.143 122.922 203.38 M 133.253 203.934 L 134.568 204.828 L 133.335 205.461 C 132.656 205.809 132.027 206.129 131.937 206.172 C 131.679 206.294 129.054 204.601 129.054 204.313 C 129.054 204.053 130.96 203.119 131.594 203.068 C 131.783 203.053 132.53 203.443 133.253 203.934 M 107.783 206.816 L 111.125 209.241 L 109.87 209.793 C 109.18 210.096 107.749 210.692 106.69 211.117 L 104.765 211.889 L 101.549 209.576 C 97.667 206.784 97.704 207.103 101.098 205.626 C 104.583 204.109 103.88 203.984 107.783 206.816 M 127.973 206.93 C 130.528 208.789 130.552 208.531 127.687 209.974 L 125.307 211.173 L 122.923 209.493 L 120.54 207.814 L 122.854 206.626 C 125.757 205.137 125.487 205.121 127.973 206.93 M 137.38 206.672 C 139.16 207.797 139.167 207.855 137.627 208.764 L 136.403 209.486 L 134.764 208.375 C 132.85 207.077 132.804 206.943 134.037 206.274 C 135.333 205.571 135.707 205.615 137.38 206.672 M 119.409 209.805 C 115.722 211.368 115.782 211.364 114.129 210.102 C 112.098 208.551 112.117 208.43 114.564 207.391 L 116.693 206.488 L 118.719 207.864 L 120.745 209.239 L 119.409 209.805 M 102.16 211.282 C 104.708 213.121 106.671 214.74 106.522 214.88 C 106.372 215.02 105.175 215.588 103.86 216.142 L 101.471 217.149 L 96.766 213.624 C 94.178 211.686 92.018 209.979 91.965 209.832 C 91.828 209.444 96.72 207.452 97.158 207.717 C 97.361 207.839 99.611 209.444 102.16 211.282 M 142.874 211.859 C 141.305 212.694 141.098 212.666 139.145 211.351 L 137.438 210.201 L 138.7 209.344 L 139.962 208.487 L 141.993 209.866 L 144.025 211.246 L 142.874 211.859 M 133.337 210.698 C 135.545 212.219 135.618 211.959 132.594 213.337 L 130.052 214.495 L 128.173 213.179 L 126.294 211.863 L 128.603 210.678 C 131.457 209.213 131.179 209.212 133.337 210.698 M 93.6 212.692 C 93.835 212.974 93.129 213.44 91.09 214.349 L 88.254 215.612 L 86.526 214.322 C 84.35 212.698 84.291 212.859 87.584 211.447 L 90.372 210.252 L 91.823 211.276 C 92.621 211.838 93.421 212.476 93.6 212.692 M 114.08 211.374 C 116.374 212.954 116.412 212.859 112.868 214.345 L 109.858 215.608 L 107.954 214.171 C 105.767 212.52 105.756 212.547 109.122 211.191 C 112.283 209.917 111.947 209.905 114.08 211.374 M 124.003 211.553 C 125.109 212.333 126.014 213.059 126.014 213.167 C 126.014 213.382 121.972 215.203 121.496 215.203 C 121.09 215.203 116.813 212.129 116.982 211.959 C 117.244 211.697 121.119 210.164 121.554 210.149 C 121.795 210.142 122.897 210.773 124.003 211.553 M 147.723 213.69 C 150.407 215.49 150.355 215.346 148.646 216.218 L 147.292 216.909 L 144.706 215.164 L 142.12 213.419 L 143.273 212.805 C 144.911 211.932 145.184 211.986 147.723 213.69 M 138.427 214.271 C 139.59 215.059 140.541 215.787 140.541 215.888 C 140.541 216.124 136.252 218.243 135.774 218.243 C 135.313 218.243 131.419 215.524 131.419 215.202 C 131.419 215.007 135.553 212.963 136.147 212.865 C 136.239 212.85 137.265 213.483 138.427 214.271 M 96.742 214.925 C 97.512 215.515 98.275 216.112 98.438 216.251 C 98.6 216.39 97.485 217.132 95.959 217.899 L 93.185 219.294 L 91.356 217.913 C 89.097 216.207 89.051 216.418 91.976 215.051 C 95.032 213.624 95.045 213.623 96.742 214.925 M 119.371 215.221 C 121.744 216.921 121.826 216.674 118.374 218.261 L 115.464 219.599 L 113.283 218.043 C 110.784 216.26 110.756 216.385 113.956 214.983 C 117.095 213.608 117.12 213.609 119.371 215.221 M 130.005 215.788 C 131.338 216.78 131.318 216.807 128.444 217.946 L 126.196 218.837 L 124.428 217.611 C 122.212 216.074 122.195 216.167 124.916 214.939 C 127.435 213.801 127.308 213.78 130.005 215.788 M 109.917 216.915 C 112.193 218.544 112.201 218.516 108.985 219.918 L 106.461 221.019 L 104.582 219.551 C 103.548 218.744 102.703 217.996 102.703 217.889 C 102.703 217.72 107.262 215.644 107.8 215.569 C 107.909 215.553 108.862 216.159 109.917 216.915 M 145.071 219.84 C 143.822 220.777 141.143 222.004 140.709 221.837 C 140.467 221.744 139.476 221.099 138.507 220.402 L 136.745 219.136 L 139.228 217.886 L 141.711 216.635 L 143.714 217.995 C 145.602 219.278 145.68 219.383 145.071 219.84 M 101.895 218.815 C 104.508 220.734 104.578 220.337 101.333 221.969 L 98.611 223.337 L 96.434 221.739 C 95.237 220.859 94.257 220.095 94.257 220.04 C 94.257 219.945 99.364 217.281 99.614 217.247 C 99.681 217.237 100.707 217.943 101.895 218.815 M 152.454 218.623 C 151.296 219.387 150.42 220.13 150.509 220.274 C 150.597 220.417 155.844 224.059 162.168 228.368 L 173.666 236.201 L 175.938 234.961 C 177.187 234.28 178.325 233.613 178.466 233.479 C 178.691 233.267 156.179 217.835 155.009 217.399 C 154.763 217.307 153.613 217.858 152.454 218.623 M 124.508 218.96 C 126.809 220.697 126.865 220.527 123.489 222.089 L 120.653 223.401 L 118.857 222.115 C 117.869 221.408 116.919 220.706 116.746 220.556 C 116.481 220.326 121.583 217.645 122.396 217.587 C 122.544 217.576 123.494 218.194 124.508 218.96 M 134.35 218.806 C 136.544 220.317 136.607 220.031 133.764 221.463 L 131.38 222.663 L 129.382 221.213 C 126.926 219.431 126.909 219.606 129.648 218.535 C 132.577 217.389 132.267 217.372 134.35 218.806 M 156.781 219.813 C 158.59 221.113 158.59 221.111 156.677 222.147 C 155.804 222.62 155.661 222.586 154.065 221.543 C 152.063 220.234 152.053 220.198 153.463 219.296 C 154.878 218.389 154.778 218.374 156.781 219.813 M 114.874 220.511 C 116.979 222.083 117.031 221.913 113.986 223.42 L 111.417 224.691 L 109.594 223.314 C 107.336 221.61 107.294 221.803 110.22 220.441 C 113.256 219.028 112.879 219.022 114.874 220.511 M 149.179 221.82 C 151.814 223.7 151.836 223.396 148.96 224.845 L 146.568 226.049 L 144.227 224.449 L 141.886 222.85 L 144.169 221.567 C 146.981 219.988 146.583 219.968 149.179 221.82 M 139.387 222.332 C 140.486 223.095 141.518 223.844 141.681 223.996 C 142.078 224.369 137.245 226.778 136.726 226.466 C 136.501 226.331 135.427 225.576 134.339 224.789 L 132.36 223.357 L 134.677 222.168 C 137.523 220.707 137.018 220.69 139.387 222.332 M 106.979 222.646 C 109.242 224.354 109.266 224.241 106.288 225.835 L 103.793 227.172 L 102.488 226.252 C 101.77 225.746 100.812 225.045 100.36 224.695 L 99.537 224.058 L 102.218 222.688 C 103.692 221.934 104.961 221.31 105.037 221.301 C 105.113 221.291 105.987 221.897 106.979 222.646 M 129.751 222.766 L 131.788 224.249 L 129.661 225.425 C 128.491 226.072 127.213 226.767 126.822 226.969 C 126.173 227.304 121.959 224.852 121.959 224.139 C 121.959 223.987 127.305 221.284 127.606 221.284 C 127.665 221.284 128.63 221.951 129.751 222.766 M 162.803 225.04 C 161.348 226.162 160.856 226.139 158.927 224.859 C 156.753 223.415 156.729 223.315 158.34 222.394 L 159.586 221.682 L 161.599 223.049 L 163.612 224.416 L 162.803 225.04 M 120.518 224.609 L 122.623 226.135 L 121.193 226.951 C 120.407 227.4 119.189 228.062 118.487 228.423 L 117.21 229.078 L 115.108 227.491 C 113.952 226.618 112.874 225.788 112.711 225.646 C 112.347 225.329 117.603 222.632 118.074 222.894 C 118.26 222.997 119.36 223.769 120.518 224.609 M 154.746 225.742 C 157.208 227.478 157.219 227.293 154.555 228.825 L 152.353 230.092 L 150.754 229.007 C 149.875 228.411 148.802 227.653 148.371 227.323 L 147.587 226.723 L 149.891 225.54 C 152.748 224.074 152.358 224.058 154.746 225.742 M 124.67 235.94 C 132.562 241.864 139.224 246.9 139.474 247.132 C 139.845 247.476 139.458 247.812 137.36 248.97 L 134.793 250.388 L 119.737 239.158 L 104.681 227.928 L 107.324 226.47 C 108.777 225.668 110.046 225.047 110.143 225.09 C 110.24 225.134 116.777 230.016 124.67 235.94 M 135.003 226.585 C 137.69 228.558 137.71 228.433 134.441 230.077 L 131.719 231.445 L 129.542 229.847 C 126.867 227.883 126.836 228.122 129.983 226.426 C 133.142 224.724 132.437 224.702 135.003 226.585 M 145.245 226.415 L 147.295 227.83 L 145.016 229.111 C 142.219 230.682 142.383 230.681 140.316 229.139 C 138.088 227.476 138.093 227.422 140.593 226.135 C 143.251 224.768 142.82 224.742 145.245 226.415 M 167.457 226.943 C 168.814 227.825 169.926 228.633 169.928 228.738 C 169.937 229.119 167.223 230.441 166.875 230.226 C 166.678 230.104 165.448 229.269 164.143 228.369 L 161.769 226.734 L 163.063 226.051 C 164.787 225.142 164.643 225.112 167.457 226.943 M 125.637 228.32 C 127.882 229.924 127.902 229.822 124.996 231.613 L 122.59 233.097 L 120.407 231.444 L 118.224 229.792 L 120.683 228.417 C 123.684 226.74 123.432 226.745 125.637 228.32 M 160.888 230.034 C 162.511 231.165 162.514 231.157 160.175 232.577 C 157.721 234.068 157.991 234.084 155.443 232.29 C 153.043 230.6 152.942 230.951 156.412 228.941 C 158.091 227.968 157.831 227.905 160.888 230.034 M 150.948 230.428 C 153.896 232.505 153.906 232.215 150.841 233.671 L 148.305 234.875 L 146.534 233.646 C 145.56 232.969 144.408 232.142 143.973 231.808 L 143.182 231.201 L 145.493 229.968 C 148.387 228.425 148.066 228.398 150.948 230.428 M 140.794 230.816 C 142.976 232.415 143.037 232.149 140.118 233.768 C 137.091 235.446 137.254 235.45 134.797 233.641 L 132.768 232.148 L 135.556 230.652 C 137.09 229.829 138.497 229.237 138.682 229.336 C 138.868 229.436 139.818 230.102 140.794 230.816 M 174.761 231.893 L 176.701 233.211 L 175.428 233.994 C 173.773 235.011 174.041 235.072 170.909 232.975 L 168.187 231.153 L 169.641 230.286 C 171.28 229.309 170.682 229.121 174.761 231.893 M 131.382 232.476 L 133.841 234.208 L 131.819 235.486 C 128.325 237.696 128.751 237.679 126.072 235.713 C 123.175 233.588 123.187 233.914 125.939 232.204 C 128.782 230.437 128.466 230.421 131.382 232.476 M 168.243 235.342 C 168.243 235.409 167.167 236.007 165.851 236.669 L 163.458 237.874 L 161.301 236.42 C 158.663 234.643 158.667 234.81 161.233 233.182 L 163.345 231.842 L 165.794 233.531 C 167.141 234.46 168.243 235.275 168.243 235.342 M 146.327 234.829 C 149.117 236.898 149.132 236.46 146.214 238.193 C 143.209 239.979 143.545 240 140.58 237.843 L 138.109 236.046 L 140.761 234.583 C 144.012 232.788 143.546 232.767 146.327 234.829 M 157.111 234.713 C 159.965 236.681 159.97 236.49 157.025 238.123 L 154.591 239.473 L 152.718 238.144 C 151.688 237.414 150.475 236.53 150.023 236.181 L 149.201 235.546 L 151.712 234.356 C 154.863 232.864 154.384 232.832 157.111 234.713 M 138.695 237.858 C 138.774 237.986 137.683 238.856 136.269 239.789 L 133.698 241.487 L 131.714 239.946 C 129.284 238.059 129.248 238.321 132.186 236.457 L 134.628 234.908 L 136.589 236.266 C 137.668 237.013 138.615 237.729 138.695 237.858 M 179.128 236.732 L 176.669 238.237 L 185.378 244.171 C 190.169 247.434 195.811 251.288 197.918 252.734 L 201.747 255.364 L 204.168 253.822 C 205.499 252.974 206.632 252.243 206.685 252.197 C 206.765 252.129 183.046 236.056 181.926 235.419 C 181.74 235.314 180.481 235.905 179.128 236.732 M 89.647 240.99 C 75.796 248.199 76.146 246.55 86.455 256.031 C 98.13 266.767 96.016 266.484 110.129 259.2 C 121.003 253.588 121.739 253.048 120.736 251.418 C 119.928 250.104 101.236 235.811 100.362 235.838 C 99.884 235.853 95.062 238.172 89.647 240.99 M 171.611 237.584 C 174.08 239.34 174.095 239.101 171.421 240.621 L 169.199 241.884 L 167.623 240.816 C 166.756 240.228 165.694 239.477 165.263 239.147 L 164.479 238.547 L 166.783 237.365 C 169.636 235.9 169.216 235.881 171.611 237.584 M 184.544 238.447 C 186.138 239.494 186.129 239.575 184.326 240.452 L 182.841 241.173 L 180.769 239.714 L 178.697 238.255 L 180.143 237.395 C 181.744 236.441 181.348 236.347 184.544 238.447 M 110.326 244.321 C 115.609 248.444 119.932 252.014 119.932 252.256 C 119.932 252.855 118.459 253.729 110.924 257.597 L 104.449 260.921 L 94.623 253.063 C 89.219 248.742 84.797 245.083 84.797 244.933 C 84.797 244.634 99.558 236.945 100.275 236.87 C 100.519 236.845 105.042 240.198 110.326 244.321 M 152.552 239.361 C 155.603 241.617 155.624 241.266 152.334 242.921 L 149.599 244.296 L 147.857 243.086 C 144.666 240.869 144.363 240.572 144.932 240.212 C 150.108 236.946 149.395 237.026 152.552 239.361 M 163.089 238.933 C 165.686 240.694 165.694 240.557 162.903 242.215 C 160.104 243.877 160.564 243.894 158.025 242.031 C 155.324 240.048 155.324 240.176 158.012 238.742 C 160.851 237.228 160.558 237.217 163.089 238.933 M 142.396 240.433 C 143.605 241.303 144.59 242.101 144.584 242.207 C 144.567 242.504 139.968 245.608 139.544 245.608 C 139.146 245.608 134.827 242.518 134.823 242.23 C 134.818 241.945 139.331 238.882 139.778 238.866 C 140.009 238.858 141.187 239.563 142.396 240.433 M 177.618 241.82 C 178.78 242.632 179.73 243.414 179.73 243.559 C 179.73 243.847 176.186 246.283 175.765 246.285 C 175.437 246.286 170.284 242.795 170.28 242.568 C 170.272 242.207 174.834 239.931 175.161 240.132 C 175.351 240.249 176.457 241.009 177.618 241.82 M 189.756 241.932 L 192.318 243.662 L 190.838 244.601 C 189.532 245.43 189.279 245.487 188.682 245.08 C 188.311 244.827 187.134 244.044 186.067 243.34 C 183.767 241.823 183.793 241.912 185.389 240.999 C 187.089 240.028 186.863 239.98 189.756 241.932 M 223.313 243.127 C 228.147 246.347 227.943 246.12 227.048 247.285 L 226.409 248.117 L 221.988 245.172 C 217.423 242.131 217.184 241.862 218.127 240.821 C 218.844 240.027 218.29 239.781 223.313 243.127 M 169.19 243.184 C 170.361 244.002 171.248 244.743 171.161 244.83 C 171.074 244.917 169.894 245.639 168.538 246.433 L 166.075 247.877 L 163.764 246.197 C 162.493 245.272 161.547 244.42 161.663 244.302 C 162.35 243.604 166.442 241.339 166.723 241.501 C 166.909 241.609 168.019 242.366 169.19 243.184 M 158.692 243.818 L 160.918 245.406 L 157.908 246.806 L 154.899 248.206 L 153.547 247.237 C 152.804 246.704 151.826 245.984 151.373 245.636 L 150.55 245.004 L 153.231 243.634 C 156.535 241.945 156.045 241.929 158.692 243.818 M 148.599 244.943 C 149.923 245.909 150.92 246.838 150.815 247.007 C 150.448 247.602 145.237 250.019 144.834 249.782 C 144.609 249.651 143.542 248.869 142.462 248.046 L 140.498 246.549 L 142.969 244.74 C 145.804 242.664 145.459 242.652 148.599 244.943 M 183.702 246.079 L 186.154 247.874 L 184.209 249.19 C 183.139 249.914 182.154 250.556 182.02 250.616 C 181.886 250.676 180.635 249.928 179.239 248.954 L 176.701 247.182 L 178.807 245.739 C 181.368 243.984 180.784 243.943 183.702 246.079 M 196.325 246.42 L 199.051 248.245 L 197.522 249.14 L 195.994 250.036 L 193.275 248.244 C 190.153 246.188 190.183 246.241 191.639 245.309 C 193.154 244.339 193.251 244.362 196.325 246.42 M 88.091 249.187 C 93.373 253.407 93.21 252.954 89.916 254.254 L 87.269 255.299 L 85.78 253.944 C 79.09 247.857 78.993 247.694 81.334 246.475 C 83.5 245.348 83.07 245.175 88.091 249.187 M 175.172 247.366 C 176.563 248.333 177.587 249.227 177.448 249.353 C 177.31 249.479 176.056 250.197 174.662 250.948 L 172.128 252.314 L 169.698 250.566 C 166.821 248.496 166.826 248.657 169.595 246.993 C 172.393 245.31 172.197 245.297 175.172 247.366 M 164.336 247.932 L 166.597 249.581 L 163.801 251.109 L 161.006 252.637 L 159.135 251.288 C 158.105 250.546 156.969 249.728 156.608 249.47 C 155.792 248.887 155.763 248.913 158.803 247.488 C 161.963 246.005 161.659 245.981 164.336 247.932 M 154.771 249.418 C 157.189 251.172 157.264 250.855 153.944 252.895 L 151.156 254.608 L 148.851 252.861 C 146.027 250.721 146.009 250.902 149.216 249.13 C 152.197 247.482 152.096 247.477 154.771 249.418 M 143.286 250.032 C 146.099 252.117 146.101 251.884 143.262 253.609 L 140.935 255.021 L 138.495 253.195 C 137.152 252.191 135.986 251.302 135.904 251.219 C 135.776 251.091 140.47 248.328 140.837 248.315 C 140.907 248.313 142.009 249.085 143.286 250.032 M 192.841 252.53 C 195.685 254.536 197.89 256.291 197.739 256.43 C 197.589 256.57 196.617 257.221 195.579 257.878 L 193.693 259.071 L 188.4 255.359 C 182.328 251.101 182.619 251.552 184.895 249.923 C 187.109 248.339 186.713 248.209 192.841 252.53 M 202.744 250.704 L 204.8 252.1 L 203.339 253.067 C 201.701 254.151 202.177 254.272 198.549 251.846 L 196.929 250.763 L 198.38 249.887 C 200.061 248.872 200.042 248.869 202.744 250.704 M 181.624 251.896 L 183.816 253.461 L 181.241 255.253 L 178.667 257.045 L 176.001 255.127 C 172.763 252.798 172.77 253.129 175.929 251.425 C 178.902 249.821 178.691 249.803 181.624 251.896 M 170.044 252.064 L 172.351 253.767 L 169.713 255.394 L 167.076 257.022 L 165.21 255.676 C 164.184 254.936 163.05 254.12 162.689 253.862 C 161.881 253.285 161.883 253.283 164.92 251.671 C 167.919 250.079 167.289 250.031 170.044 252.064 M 160.52 253.602 C 161.98 254.653 163.176 255.625 163.176 255.762 C 163.176 256.185 157.666 259.154 157.206 258.977 C 156.37 258.657 152.395 255.572 152.471 255.302 C 152.535 255.071 157.353 251.785 157.732 251.714 C 157.804 251.7 159.059 252.55 160.52 253.602 M 149.275 254.524 L 151.709 256.345 L 149.28 257.898 C 147.833 258.824 146.702 259.34 146.483 259.176 C 146.281 259.023 145.157 258.174 143.986 257.288 L 141.857 255.677 L 144.155 254.221 C 146.999 252.42 146.417 252.385 149.275 254.524 M 98.733 257.728 C 101.102 259.624 103.041 261.29 103.041 261.43 C 103.041 262.62 97.554 263.916 96.056 263.079 C 95.018 262.499 88.688 256.658 88.655 256.25 C 88.617 255.785 93.669 253.722 94.088 254.032 C 94.274 254.169 96.364 255.832 98.733 257.728 M 206.338 255.163 C 205.086 255.947 204.098 256.694 204.142 256.824 C 204.266 257.186 231.16 275.709 231.407 275.601 C 232.341 275.195 236.442 272.416 236.387 272.227 C 236.296 271.912 209.243 253.713 208.888 253.728 C 208.738 253.734 207.59 254.38 206.338 255.163 M 188.643 256.807 C 190.523 258.135 192.189 259.335 192.345 259.473 C 192.759 259.838 187.126 263.224 186.681 262.878 C 186.481 262.723 184.821 261.498 182.993 260.157 C 181.164 258.816 179.754 257.633 179.86 257.528 C 180.494 256.894 184.369 254.428 184.757 254.412 C 185.014 254.401 186.763 255.479 188.643 256.807 M 179.761 259.144 C 183.088 261.573 185.808 263.663 185.805 263.79 C 185.8 263.985 181.85 266.503 181.029 266.834 C 180.668 266.979 168.235 258.016 168.336 257.683 C 168.45 257.309 172.723 254.756 173.258 254.742 C 173.507 254.735 176.434 256.716 179.761 259.144 M 211.216 256.465 L 213.274 257.862 L 212.465 258.477 C 210.469 259.992 210.35 259.991 208.137 258.439 C 205.717 256.741 205.734 256.797 207.351 255.843 C 208.994 254.874 208.836 254.848 211.216 256.465 M 172.204 262.08 C 176.148 264.933 179.445 267.38 179.53 267.518 C 179.678 267.757 174.618 270.995 173.742 271.222 C 173.28 271.343 158.329 260.139 158.596 259.873 C 159.227 259.241 164.424 256.533 164.696 256.694 C 164.882 256.803 168.261 259.227 172.204 262.08 M 154.999 258.784 C 157.53 260.637 157.557 260.349 154.696 262.087 L 152.317 263.532 L 150.145 261.937 C 148.95 261.06 147.973 260.258 147.973 260.154 C 147.973 259.888 152.464 257.067 152.716 257.175 C 152.829 257.224 153.857 257.948 154.999 258.784 M 186.184 267.736 C 177.394 273.193 170.129 277.732 170.037 277.823 C 169.946 277.914 175.944 282.545 183.365 288.115 L 196.858 298.241 L 212.872 287.776 C 221.679 282.02 229.082 277.199 229.323 277.063 C 229.653 276.875 206.069 260.125 202.518 258.024 C 202.323 257.909 194.973 262.28 186.184 267.736 M 219.77 262.489 C 219.69 262.619 219.03 263.137 218.305 263.64 L 216.985 264.554 L 214.236 262.66 C 211.041 260.46 211.083 260.562 212.932 259.437 L 214.358 258.57 L 217.137 260.411 C 218.666 261.424 219.851 262.359 219.77 262.489 M 207.97 263.066 C 214.073 267.291 213.775 266.681 210.686 268.627 L 208.2 270.192 L 202.562 266.289 L 196.923 262.386 L 199.391 260.778 C 202.346 258.853 201.595 258.652 207.97 263.066 M 150.881 263.748 C 153.495 265.667 153.487 265.431 151.01 267.177 L 148.979 268.61 L 146.637 266.822 C 145.348 265.838 144.286 264.933 144.275 264.811 C 144.26 264.632 148.146 262.274 148.601 262.186 C 148.668 262.173 149.694 262.876 150.881 263.748 M 201.385 266.763 C 204.247 268.735 206.721 270.472 206.884 270.623 C 207.139 270.858 202.731 273.986 202.144 273.986 C 201.673 273.986 190.537 266.444 190.726 266.253 C 191.17 265.8 195.464 263.223 195.811 263.2 C 196.015 263.187 198.523 264.79 201.385 266.763 M 224.351 265.24 C 227.865 267.646 227.788 267.469 225.858 268.688 L 224.353 269.639 L 221.298 267.522 C 217.775 265.081 217.861 265.245 219.506 264.074 C 221.136 262.915 220.861 262.849 224.351 265.24 M 161.597 266.44 C 164.491 268.625 164.405 268.516 163.664 269.068 C 161.748 270.493 161.698 270.488 158.977 268.543 C 156.002 266.417 156.078 266.59 157.689 265.64 C 159.35 264.661 159.2 264.63 161.597 266.44 M 157.713 268.9 L 160.528 271.018 L 158.303 272.51 L 156.078 274.003 L 153.059 271.714 C 151.398 270.455 150.033 269.35 150.027 269.257 C 149.998 268.868 154.252 266.321 154.561 266.541 C 154.747 266.674 156.165 267.735 157.713 268.9 M 195.162 270.811 C 198.196 272.781 200.754 274.515 200.847 274.665 C 200.982 274.884 198.988 276.296 196.424 277.797 C 196.011 278.039 185.304 270.439 185.304 269.903 C 185.304 269.548 188.775 267.251 189.333 267.237 C 189.505 267.233 192.128 268.841 195.162 270.811 M 217.47 269.631 C 219.103 270.765 220.562 271.808 220.713 271.948 C 220.863 272.088 219.823 272.927 218.402 273.813 L 215.819 275.423 L 212.644 273.269 C 208.957 270.767 209.01 271.037 211.824 269.11 C 214.542 267.25 213.967 267.197 217.47 269.631 M 231.591 270.152 C 233.169 271.202 234.459 272.153 234.459 272.266 C 234.459 272.455 231.556 274.324 231.263 274.324 C 230.924 274.324 225.676 270.528 225.676 270.282 C 225.676 270.064 228.227 268.318 228.635 268.256 C 228.683 268.249 230.014 269.102 231.591 270.152 M 167.993 271.252 C 170.578 273.201 170.604 273.236 169.851 273.724 C 167.738 275.095 167.828 275.106 165.162 273.112 C 162.346 271.004 162.405 271.148 163.912 270.083 C 165.34 269.073 164.961 268.965 167.993 271.252 M 189.373 274.498 C 192.338 276.638 194.801 278.5 194.847 278.637 C 194.892 278.773 193.56 279.758 191.887 280.826 L 188.844 282.767 L 183.864 278.837 C 181.126 276.676 178.682 274.719 178.433 274.49 C 178.044 274.13 182.836 270.674 183.799 270.619 C 183.9 270.613 186.409 272.359 189.373 274.498 M 211.647 273.872 L 214.889 276.123 L 212.596 277.58 C 209.749 279.389 210.244 279.438 206.52 276.982 C 202.784 274.519 202.893 275.002 205.655 273.149 C 208.445 271.278 207.797 271.199 211.647 273.872 M 163.961 273.534 C 165.109 274.401 166.172 275.217 166.325 275.35 C 166.608 275.594 162.534 278.041 161.843 278.041 C 161.442 278.041 157.122 274.948 157.123 274.662 C 157.125 274.388 160.939 272.018 161.428 271.987 C 161.674 271.972 162.814 272.668 163.961 273.534 M 225.041 274.88 L 227.763 276.788 L 225.157 278.45 L 222.551 280.112 L 219.724 278.173 C 218.17 277.106 216.969 276.162 217.056 276.075 C 217.633 275.498 221.534 273.009 221.886 272.993 C 222.124 272.982 223.544 273.831 225.041 274.88 M 182.432 279.003 C 185.127 281.128 187.464 282.986 187.627 283.131 C 187.79 283.277 186.827 284.098 185.488 284.957 L 183.053 286.517 L 177.506 282.371 C 174.456 280.091 171.96 278.146 171.961 278.048 C 171.964 277.676 176.875 274.769 177.196 274.949 C 177.382 275.053 179.738 276.877 182.432 279.003 M 207.355 278.791 C 209.083 279.966 209.1 279.928 205.937 281.899 L 203.423 283.466 L 200.36 281.211 C 196.704 278.52 196.762 278.904 199.713 276.976 L 202.117 275.404 L 204.015 276.607 C 205.058 277.268 206.561 278.251 207.355 278.791 M 218.839 278.85 C 220.184 279.76 221.284 280.617 221.284 280.754 C 221.284 281.017 210.406 288.176 210.007 288.176 C 209.672 288.176 204.729 284.417 204.733 284.165 C 204.74 283.747 215.716 276.79 216.052 276.991 C 216.241 277.104 217.495 277.94 218.839 278.85 M 199.467 281.826 C 202.925 284.389 202.931 283.909 199.411 286.149 C 195.675 288.526 196.24 288.552 192.796 285.843 L 189.815 283.498 L 192.796 281.464 C 196.24 279.113 195.773 279.088 199.467 281.826 M 191.954 286.536 C 194.163 288.298 194.861 289.03 194.535 289.246 C 194.289 289.409 193.217 290.08 192.152 290.737 L 190.216 291.933 L 187.422 289.833 C 185.886 288.679 184.498 287.62 184.339 287.48 C 184.11 287.279 188.305 284.122 188.801 284.122 C 188.87 284.122 190.289 285.208 191.954 286.536 M 206.113 286.74 C 207.57 287.808 208.767 288.78 208.773 288.898 C 208.784 289.111 197.715 296.487 197.084 296.688 C 196.907 296.744 195.51 295.858 193.981 294.719 L 191.201 292.648 L 197.205 288.75 C 200.507 286.606 203.267 284.839 203.337 284.825 C 203.407 284.81 204.656 285.671 206.113 286.74" stroke-linecap="round"/>
</g>
		<g transform="matrix(1 0 0 1 -27.3251 9.1303)" id="path3">
<path style="stroke: none; stroke-width: 1; stroke-dasharray: none; stroke-linecap: butt; stroke-dashoffset: 0; stroke-linejoin: miter; stroke-miterlimit: 4; is-custom-font: none; font-file-url: none; fill: rgb(106,106,106); fill-rule: evenodd; opacity: 1;" transform=" translate(-172.6749, -202.3735)" d="M 162.331 76.061 C 166.447 77.639 286.08 128.327 287.669 129.166 C 294.07 132.546 297.929 139.69 297.553 147.462 L 297.389 150.845 L 277.534 206.757 C 266.613 237.508 257.463 263.378 257.201 264.244 C 256.938 265.11 256.487 265.91 256.199 266.02 C 255.91 266.131 237.299 278.762 214.841 294.09 C 192.383 309.418 173.105 322.418 172.001 322.978 C 163.844 327.124 153.611 325.782 146.284 319.608 C 141.989 315.989 51.806 237.68 48.847 235.001 L 45.836 232.274 L 46.033 233.742 C 46.141 234.55 46.584 235.702 47.017 236.302 C 47.611 237.125 137.06 315.074 147.299 323.691 C 154.307 329.589 164.26 330.673 172.128 326.393 C 173.957 325.399 255.543 268.879 256.48 267.957 C 256.98 267.466 297.926 153.216 298.997 149.324 C 300.87 142.52 297.502 133.987 291.322 129.874 C 288.472 127.978 165.304 76.084 163.118 75.858 C 161.502 75.691 161.422 75.712 162.331 76.061 M 156.88 77.375 C 154.923 77.979 152.632 79.825 151.65 81.588 C 150.797 83.12 132.723 182.832 132.785 185.664 C 132.809 186.806 153.01 199.353 153.876 198.764 C 155.07 197.952 155.849 198.266 160.728 201.524 C 165.448 204.675 166.107 205.38 165.188 206.298 C 164.943 206.543 172.868 211.724 191.112 223.246 C 207.973 233.894 217.506 239.724 217.715 239.515 C 218.811 238.418 229.598 244.943 229.296 246.52 C 229.163 247.218 254.505 263.878 255.647 263.843 C 255.873 263.837 287.294 175.599 294.003 156.132 C 297.675 145.476 296.933 139.595 291.158 133.58 C 288.325 130.631 291.173 131.905 223.567 103.326 C 157.587 75.434 160.055 76.394 156.88 77.375 M 221.104 111.96 C 254.173 126.585 281.972 138.956 282.88 139.45 C 286.93 141.655 289.607 146.912 288.998 151.467 C 288.77 153.172 257.972 244.483 256.608 247.496 C 255.324 250.334 252.239 251.676 249.565 250.559 C 248.083 249.939 140.064 181.991 138.904 180.949 C 136.413 178.71 136.098 181.169 145.11 132.562 C 153.755 85.933 153.327 87.987 154.653 86.756 C 157.959 83.688 152.506 81.619 221.104 111.96 M 155.422 87.897 C 154.506 88.881 155.356 84.636 146.466 132.609 C 137.261 182.279 137.689 178.67 140.776 180.693 C 155.273 190.197 250.075 249.428 250.996 249.557 C 252.183 249.725 252.176 249.714 250.338 248.565 C 233.388 237.971 142.765 180.782 141.941 180.159 C 140.659 179.191 139.865 177.578 139.865 175.94 C 139.864 174.722 155.571 89.591 156.073 88.091 C 156.448 86.97 156.322 86.932 155.422 87.897 M 167.568 137.967 C 167.568 138.254 169.285 138.403 169.454 138.13 C 169.553 137.969 169.169 137.838 168.601 137.838 C 168.033 137.838 167.568 137.896 167.568 137.967 M 185.557 147.192 C 185.883 147.277 186.415 147.277 186.74 147.192 C 187.065 147.107 186.799 147.038 186.149 147.038 C 185.498 147.038 185.232 147.107 185.557 147.192 M 192.041 156.239 C 191.425 156.705 191.457 156.734 192.568 156.707 C 193.218 156.691 193.482 156.608 193.155 156.523 C 192.827 156.438 192.646 156.227 192.752 156.056 C 193.028 155.609 192.795 155.669 192.041 156.239 M 231.054 171.377 C 231.504 171.882 231.96 172.198 232.068 172.081 C 232.175 171.963 232.073 171.799 231.839 171.715 C 231.606 171.632 231.516 171.387 231.64 171.17 C 231.764 170.954 231.741 170.89 231.589 171.027 C 231.437 171.165 231.07 171.094 230.774 170.869 C 230.479 170.644 230.604 170.873 231.054 171.377 M 236.402 179.278 C 236.634 179.372 236.824 179.673 236.824 179.947 C 236.824 180.221 236.984 180.347 237.179 180.226 C 237.605 179.963 236.947 179.04 236.361 179.081 C 236.121 179.097 236.137 179.171 236.402 179.278 M 247.038 183.784 C 247.038 184.434 247.107 184.7 247.192 184.375 C 247.277 184.05 247.277 183.518 247.192 183.193 C 247.107 182.867 247.038 183.133 247.038 183.784 M 253.743 182.886 C 253.728 183.042 254.02 183.557 254.392 184.029 C 254.764 184.502 255.068 184.725 255.068 184.525 C 255.068 184.325 254.913 184.066 254.724 183.949 C 254.535 183.833 254.483 183.572 254.607 183.37 C 254.736 183.162 254.678 183.1 254.473 183.227 C 254.274 183.35 254.035 183.259 253.941 183.026 C 253.847 182.792 253.758 182.729 253.743 182.886 M 256.849 186.824 C 256.849 187.66 256.915 188.003 256.995 187.584 C 257.076 187.166 257.076 186.482 256.995 186.064 C 256.915 185.646 256.849 185.988 256.849 186.824 M 90.541 205.106 C 67.965 214.899 48.988 223.238 48.37 223.638 C 46.286 224.985 45.478 227.872 46.483 230.383 C 46.953 231.557 102.36 280.144 144.993 316.768 C 153.897 324.416 162.857 326.143 171.304 321.84 C 174.085 320.423 254.457 265.564 254.323 265.174 C 253.946 264.075 228.183 248.418 227.746 249.022 C 227.053 249.979 226.952 249.934 221.351 246.216 C 216.569 243.041 216.17 242.699 216.292 241.867 C 216.464 240.693 164.868 207.742 163.993 208.468 C 163.262 209.075 162.646 208.78 157.58 205.405 C 151.966 201.665 152.601 202.186 152.537 201.267 C 152.489 200.579 144.523 195.235 133.108 188.233 L 131.588 187.301 L 90.541 205.106 M 137.4 205.245 C 145.538 210.731 152.235 215.334 152.283 215.474 C 152.331 215.613 151.201 216.306 149.771 217.013 L 147.172 218.3 L 140.562 213.857 C 129.089 206.147 134.457 210.003 167.83 233.446 C 185.685 245.988 200.189 256.354 200.062 256.48 C 199.818 256.724 177.466 270.604 174.951 272.073 L 173.48 272.933 L 165.796 267.172 L 158.112 261.41 L 155.92 262.715 C 153.436 264.194 153.405 264.246 154.557 265 C 155.359 265.526 155.48 265.504 157.202 264.532 C 159.563 263.2 158.773 262.868 166.056 268.257 C 173.158 273.512 172.936 273.294 171.876 273.972 C 168.752 275.971 161.684 279.684 161.369 279.492 C 160.396 278.901 142.051 264.786 141.97 264.567 C 141.92 264.431 142.76 263.898 143.837 263.384 C 148.095 261.348 151.58 264.516 114.866 237.048 C 97.027 223.703 82.435 212.682 82.439 212.557 C 82.446 212.302 121.567 195.305 122.197 195.284 C 122.421 195.276 129.262 199.759 137.4 205.245 M 120.777 197.256 L 119.426 197.853 L 121.371 199.146 L 123.317 200.438 L 124.667 199.829 L 126.017 199.22 L 124.917 198.482 C 122.002 196.525 122.258 196.601 120.777 197.256 M 114.105 200.076 C 111.406 201.3 111.389 201.357 113.325 202.689 L 114.825 203.722 L 117.402 202.585 L 119.979 201.449 L 118.266 200.218 C 117.324 199.54 116.515 198.999 116.469 199.014 C 116.423 199.029 115.359 199.507 114.105 200.076 M 154.459 200.068 C 153.647 200.88 154.132 201.395 158.36 204.219 L 162.666 207.095 L 163.251 206.335 C 163.573 205.916 163.836 205.498 163.835 205.405 C 163.834 205.177 155.481 199.662 155.137 199.662 C 154.987 199.662 154.682 199.845 154.459 200.068 M 125.893 200.681 L 124.59 201.27 L 126.177 202.361 L 127.764 203.453 L 129.111 202.846 L 130.458 202.239 L 129.694 201.662 C 127.698 200.156 127.288 200.051 125.893 200.681 M 107.831 202.83 C 105.615 203.786 105.625 203.827 108.558 205.948 L 110.943 207.674 L 113.07 206.793 C 115.699 205.705 115.716 205.845 112.698 203.758 C 109.811 201.763 110.153 201.828 107.831 202.83 M 118.438 203.496 L 116.099 204.582 L 117.851 205.841 L 119.603 207.1 L 121.542 206.098 C 124.554 204.54 124.507 204.637 122.839 203.44 C 121.05 202.155 121.335 202.152 118.438 203.496 M 130.092 203.686 L 128.934 204.303 L 130.364 205.249 L 131.795 206.196 L 133.164 205.532 L 134.534 204.869 L 133.153 203.955 C 131.536 202.885 131.587 202.889 130.092 203.686 M 101.069 205.726 L 98.253 207.007 L 101.513 209.385 L 104.773 211.763 L 107.764 210.534 C 109.409 209.858 110.692 209.203 110.615 209.078 C 110.414 208.752 104.705 204.693 104.258 204.558 C 104.053 204.496 102.618 205.021 101.069 205.726 M 123.185 206.63 C 121.907 207.286 120.995 207.946 121.158 208.099 C 121.32 208.251 122.339 208.99 123.422 209.741 L 125.39 211.107 L 127.645 209.887 C 128.884 209.217 129.945 208.635 130.001 208.595 C 130.098 208.527 125.719 205.387 125.575 205.422 C 125.537 205.431 124.462 205.975 123.185 206.63 M 134.178 206.372 L 133.052 206.972 L 134.347 207.934 C 135.059 208.463 135.802 209.016 135.997 209.163 C 136.193 209.311 136.933 209.08 137.648 208.648 L 138.944 207.866 L 137.401 206.805 C 135.617 205.577 135.658 205.583 134.178 206.372 M 114.092 207.672 L 112.137 208.543 L 113.917 209.813 L 115.696 211.084 L 117.88 210.262 C 119.082 209.81 120.125 209.38 120.198 209.306 C 120.426 209.078 117.09 206.773 116.554 206.787 C 116.275 206.795 115.168 207.193 114.092 207.672 M 130.743 207.218 C 130.743 207.31 131.199 207.711 131.757 208.108 C 132.314 208.505 132.77 208.754 132.77 208.661 C 132.77 208.568 132.314 208.167 131.757 207.77 C 131.199 207.373 130.743 207.125 130.743 207.218 M 93.954 208.809 L 91.794 209.81 L 96.488 213.342 C 101.891 217.408 101.253 217.208 104.321 215.794 L 106.703 214.696 L 102.032 211.318 C 96.666 207.437 96.815 207.483 93.954 208.809 M 138.767 209.378 C 137.537 210.141 137.567 210.229 139.481 211.457 L 141.124 212.511 L 142.558 211.902 L 143.993 211.293 L 142.103 210.038 C 139.937 208.6 140.001 208.613 138.767 209.378 M 128.945 210.608 C 126.612 211.947 126.614 211.937 128.358 213.2 C 130.031 214.412 129.807 214.415 132.717 213.13 L 135.116 212.07 L 133.294 210.765 C 131.112 209.202 131.38 209.212 128.945 210.608 M 109.156 211.326 C 107.595 211.965 106.263 212.543 106.195 212.611 C 106.128 212.679 106.949 213.343 108.019 214.087 L 109.966 215.44 L 112.963 214.181 L 115.959 212.921 L 114.115 211.528 C 113.1 210.762 112.207 210.142 112.131 210.15 C 112.055 210.158 110.716 210.687 109.156 211.326 M 119.168 211.097 L 116.883 212.023 L 118.994 213.528 C 120.155 214.356 121.193 215.075 121.3 215.125 C 121.408 215.176 122.528 214.75 123.788 214.178 L 126.08 213.139 L 123.935 211.641 C 122.756 210.817 121.715 210.149 121.622 210.156 C 121.529 210.164 120.424 210.587 119.168 211.097 M 89.358 210.831 C 88.986 211.003 87.789 211.531 86.698 212.005 L 84.714 212.866 L 86.475 214.181 L 88.237 215.495 L 90.782 214.336 C 92.182 213.698 93.385 213.176 93.454 213.176 C 93.957 213.176 93.348 212.447 92.09 211.544 C 90.481 210.389 90.375 210.361 89.358 210.831 M 143.607 212.806 L 142.451 213.422 L 144.114 214.634 C 146.974 216.718 147.134 216.766 148.691 216.012 L 150.066 215.346 L 147.672 213.754 C 144.949 211.943 145.143 211.988 143.607 212.806 M 133.872 213.98 C 130.92 215.252 130.941 215.053 133.564 216.832 L 135.71 218.287 L 137.956 217.179 C 140.671 215.84 140.659 215.957 138.26 214.283 L 136.318 212.927 L 133.872 213.98 M 92.083 215.148 L 89.402 216.405 L 91.114 217.662 C 93.189 219.185 92.875 219.174 95.85 217.827 C 98.75 216.514 98.715 216.622 96.735 215.079 C 94.86 213.618 95.362 213.611 92.083 215.148 M 114.032 215.084 C 112.552 215.725 111.3 216.29 111.251 216.339 C 111.069 216.521 115.183 219.256 115.608 219.237 C 115.85 219.226 117.239 218.656 118.697 217.97 L 121.346 216.723 L 119.304 215.287 C 116.912 213.605 117.402 213.624 114.032 215.084 M 124.539 215.174 L 122.558 216.102 L 124.321 217.396 C 126.263 218.822 126.134 218.826 129.856 217.249 L 131.165 216.694 L 129.347 215.442 C 127.212 213.972 127.12 213.967 124.539 215.174 M 107.264 215.925 C 106.892 216.083 105.695 216.599 104.605 217.072 L 102.622 217.933 L 104.589 219.405 L 106.557 220.877 L 108.261 220.122 C 109.199 219.707 110.387 219.147 110.902 218.877 L 111.838 218.386 L 109.889 217.013 C 108.386 215.954 107.784 215.705 107.264 215.925 M 139.106 218.033 C 136.765 219.305 136.77 219.136 139.025 220.701 L 140.862 221.976 L 143.278 220.759 L 145.695 219.542 L 143.878 218.228 C 141.729 216.674 141.614 216.669 139.106 218.033 M 178.837 233.128 C 179.134 233.39 174.489 236.136 173.735 236.144 C 173.354 236.148 151.444 221.406 150.401 220.443 C 150.043 220.113 150.431 219.737 152.396 218.507 L 154.835 216.981 L 166.691 224.927 C 173.212 229.297 178.678 232.988 178.837 233.128 M 96.888 218.693 C 94.125 219.998 94.135 219.862 96.663 221.741 L 98.732 223.278 L 100.633 222.308 C 104.073 220.553 104.053 220.606 101.905 218.984 C 99.695 217.316 99.791 217.321 96.888 218.693 M 119.665 218.926 C 116.37 220.474 116.441 220.235 118.782 221.896 L 120.673 223.237 L 123.259 222.054 C 126.691 220.485 126.655 220.581 124.405 219.003 L 122.437 217.623 L 119.665 218.926 M 129.986 218.535 C 127.259 219.602 127.269 219.558 129.393 221.083 C 131.435 222.551 131.393 222.549 134.083 221.276 L 136.24 220.256 L 134.321 218.912 C 133.266 218.172 132.371 217.585 132.333 217.606 C 132.295 217.627 131.239 218.045 129.986 218.535 M 153.437 219.408 L 152.314 220.203 L 153.836 221.25 C 155.584 222.453 155.846 222.484 157.364 221.675 L 158.479 221.081 L 156.664 219.831 C 154.544 218.371 154.849 218.411 153.437 219.408 M 110.352 220.552 L 107.721 221.791 L 109.426 223.057 C 111.5 224.598 111.303 224.595 114.222 223.125 L 116.603 221.926 L 115.818 221.33 C 115.387 221.003 114.572 220.415 114.008 220.024 L 112.982 219.313 L 110.352 220.552 M 144.51 221.491 C 141.765 222.88 141.787 222.647 144.238 224.312 C 146.632 225.937 146.562 225.934 149.267 224.543 L 151.406 223.443 L 149.441 222.11 C 148.361 221.377 147.323 220.678 147.134 220.558 C 146.945 220.437 145.764 220.857 144.51 221.491 M 134.988 222.202 L 132.646 223.383 L 133.468 224.015 C 133.92 224.362 134.899 225.082 135.642 225.614 L 136.993 226.582 L 139.467 225.434 L 141.94 224.286 L 140.649 223.363 C 139.939 222.855 138.902 222.12 138.345 221.73 L 137.331 221.021 L 134.988 222.202 M 124.74 222.761 L 121.946 224.17 L 123.653 225.444 C 126 227.196 126.03 227.2 128.259 226.063 C 131.861 224.226 131.84 223.968 127.894 221.572 C 127.696 221.451 126.276 221.987 124.74 222.761 M 102.28 222.825 C 99.551 224.226 99.592 223.935 101.873 225.658 L 103.747 227.072 L 106.012 225.836 C 109.046 224.181 109.004 224.295 107.101 222.874 C 105.077 221.363 105.128 221.364 102.28 222.825 M 158.193 222.549 C 156.777 223.254 156.776 223.253 158.946 224.759 L 160.789 226.039 L 162.151 225.343 C 163.832 224.486 163.871 224.657 161.661 223.19 C 159.56 221.795 159.668 221.815 158.193 222.549 M 115.076 224.198 C 113.756 224.875 112.882 225.516 113.049 225.683 C 113.212 225.845 114.24 226.646 115.334 227.464 L 117.323 228.951 L 119.709 227.64 C 121.022 226.918 122.154 226.269 122.227 226.197 C 122.415 226.008 118.178 222.97 117.753 222.99 C 117.558 222.999 116.354 223.542 115.076 224.198 M 150.266 225.462 C 147.511 226.748 147.524 226.615 149.969 228.329 C 152.33 229.985 152.308 229.983 154.332 228.827 C 156.903 227.358 156.889 227.387 155.487 226.374 C 152.541 224.245 152.784 224.287 150.266 225.462 M 107.601 226.415 C 106.301 227.156 105.185 227.814 105.122 227.876 C 105.058 227.938 111.702 233.013 119.886 239.154 L 134.765 250.319 L 136.893 249.122 C 138.063 248.463 139.148 247.799 139.305 247.647 C 139.52 247.437 122.6 234.396 110.98 225.815 L 109.966 225.067 L 107.601 226.415 M 130.743 226.115 C 126.901 228.178 127.018 227.886 129.357 229.588 C 130.485 230.409 131.56 231.081 131.746 231.081 C 132.204 231.081 137.163 228.614 137.158 228.389 C 137.155 228.225 133.807 225.771 132.96 225.312 C 132.763 225.205 131.765 225.566 130.743 226.115 M 140.644 226.308 L 138.226 227.534 L 140.232 228.972 L 142.238 230.41 L 144.599 229.221 C 147.431 227.794 147.398 228.025 145.011 226.405 L 143.062 225.081 L 140.644 226.308 M 163.39 226.057 C 162.671 226.436 162.215 226.859 162.376 226.997 C 162.537 227.135 163.685 227.959 164.927 228.828 L 167.186 230.408 L 168.39 229.698 C 169.053 229.307 169.595 228.873 169.595 228.732 C 169.595 228.515 165.034 225.311 164.784 225.353 C 164.736 225.361 164.108 225.678 163.39 226.057 M 121.302 228.216 C 118.311 229.828 118.321 229.79 120.409 231.367 C 122.682 233.083 122.463 233.085 125.288 231.327 L 127.607 229.884 L 125.666 228.455 C 123.365 226.761 123.943 226.793 121.302 228.216 M 155.659 229.481 C 153.288 230.807 153.284 230.643 155.727 232.366 C 158.142 234.069 157.649 234.057 160.153 232.474 L 162.225 231.163 L 160.281 229.771 C 157.959 228.108 158.097 228.117 155.659 229.481 M 145.861 229.92 C 143.107 231.334 143.101 230.999 145.924 233.091 L 148.266 234.828 L 150.832 233.537 L 153.397 232.246 L 150.859 230.481 C 149.462 229.51 148.28 228.724 148.231 228.733 C 148.182 228.742 147.116 229.276 145.861 229.92 M 135.557 230.759 C 132.63 232.383 132.681 232.035 135.12 233.746 L 137.133 235.158 L 139.885 233.774 C 141.399 233.012 142.565 232.317 142.476 232.228 C 141.821 231.573 138.658 229.393 138.368 229.396 C 138.169 229.399 136.905 230.012 135.557 230.759 M 169.634 230.429 C 169.005 230.812 168.625 231.243 168.789 231.385 C 168.954 231.528 170.121 232.354 171.383 233.22 L 173.679 234.796 L 175.015 234.114 C 176.696 233.256 176.777 233.454 173.921 231.442 C 171.148 229.488 171.169 229.493 169.634 230.429 M 126.351 232.136 C 125.144 232.898 124.079 233.594 123.986 233.683 C 123.81 233.852 124.909 234.798 127.212 236.458 L 128.58 237.444 L 130.902 235.95 C 132.179 235.128 133.289 234.391 133.369 234.312 C 133.51 234.17 129.048 230.755 128.716 230.752 C 128.623 230.751 127.559 231.373 126.351 232.136 M 161.04 233.404 L 159.074 234.712 L 161.308 236.273 L 163.542 237.835 L 165.848 236.577 L 168.155 235.319 L 165.867 233.707 C 163.123 231.773 163.461 231.794 161.04 233.404 M 141.132 234.498 C 138.006 236.075 138.026 235.944 140.633 237.804 C 143.384 239.768 143.368 239.767 146.207 238.067 L 148.664 236.595 L 146.567 235.105 C 145.414 234.285 144.308 233.516 144.11 233.396 C 143.912 233.275 142.572 233.771 141.132 234.498 M 152.081 234.311 C 149.261 235.616 149.259 235.561 152.22 237.674 C 154.697 239.441 154.633 239.443 157.88 237.538 L 159.511 236.582 L 157.374 235.072 C 156.198 234.242 155.082 233.473 154.894 233.365 C 154.705 233.256 153.439 233.681 152.081 234.311 M 131.962 236.728 L 129.634 238.269 L 130.442 238.895 C 130.886 239.24 131.82 239.923 132.517 240.415 L 133.784 241.308 L 136.314 239.637 L 138.845 237.966 L 136.837 236.551 C 134.429 234.852 134.817 234.838 131.962 236.728 M 194.398 243.581 C 201.18 248.133 206.686 252.005 206.634 252.185 C 206.581 252.365 205.456 253.18 204.132 253.996 L 201.725 255.48 L 189.207 246.954 C 182.322 242.264 176.694 238.333 176.7 238.217 C 176.718 237.878 181.211 235.188 181.659 235.249 C 181.883 235.279 187.616 239.029 194.398 243.581 M 102.027 236.302 C 102.306 236.527 106.659 239.93 111.7 243.863 C 120.961 251.086 121.569 251.707 120.874 253.233 C 120.421 254.227 100.64 264.505 98.671 264.77 C 96.422 265.071 94.881 264.001 86.655 256.42 C 76.249 246.83 76.347 247.723 85.2 243.145 C 101.54 234.696 100.545 235.1 102.027 236.302 M 167.145 237.297 C 166.076 237.905 165.124 238.48 165.029 238.575 C 164.815 238.789 168.716 241.554 169.231 241.554 C 169.801 241.554 173.311 239.503 173.311 239.17 C 173.311 238.914 169.462 236.113 169.191 236.171 C 169.134 236.183 168.213 236.69 167.145 237.297 M 92.492 240.816 C 88.27 242.987 84.849 244.862 84.891 244.983 C 84.932 245.103 89.348 248.713 94.703 253.004 L 104.44 260.805 L 111.986 256.911 C 120.537 252.498 120.486 252.548 118.311 250.747 C 114.978 247.989 100.955 237.12 100.571 236.998 C 100.35 236.927 96.714 238.646 92.492 240.816 M 180.293 237.46 C 178.995 238.316 178.995 238.316 180.911 239.678 C 182.89 241.085 183.027 241.103 184.629 240.157 L 185.851 239.436 L 183.888 238.131 C 181.628 236.629 181.57 236.618 180.293 237.46 M 148.48 238.141 C 147.922 238.489 146.812 239.178 146.012 239.673 L 144.558 240.572 L 147.023 242.377 L 149.487 244.183 L 152.193 242.829 C 153.681 242.085 154.941 241.439 154.992 241.394 C 155.109 241.291 150.381 237.83 149.87 237.645 C 149.663 237.57 149.037 237.793 148.48 238.141 M 157.993 238.84 L 155.682 240.098 L 156.98 241.102 C 157.693 241.654 158.762 242.442 159.355 242.852 L 160.433 243.598 L 162.733 242.198 C 163.999 241.428 165.082 240.755 165.141 240.703 C 165.313 240.55 160.925 237.496 160.599 237.542 C 160.437 237.564 159.264 238.149 157.993 238.84 M 137.482 240.383 C 136.284 241.225 135.264 242.03 135.214 242.172 C 135.055 242.631 139.491 245.669 139.944 245.41 C 140.179 245.276 141.331 244.491 142.504 243.666 L 144.636 242.166 L 142.283 240.509 C 139.467 238.525 140.099 238.542 137.482 240.383 M 172.551 241.296 C 170.149 242.65 170.108 242.433 173.156 244.56 L 175.704 246.34 L 177.714 245.045 C 180.149 243.476 180.157 243.729 177.623 241.926 C 174.93 240.011 174.847 240 172.551 241.296 M 185.724 240.964 C 184.078 241.905 184.063 241.867 186.866 243.731 L 189.273 245.331 L 190.442 244.71 C 192.105 243.824 192.101 243.715 190.361 242.488 C 186.965 240.094 187.144 240.153 185.724 240.964 M 218.072 241.218 C 217.735 241.591 217.522 241.95 217.598 242.016 C 220.026 244.117 226.533 247.857 226.906 247.366 C 227.676 246.352 227.438 246.089 223.213 243.291 C 218.504 240.171 218.882 240.324 218.072 241.218 M 165.372 242.044 C 165 242.294 163.973 242.94 163.09 243.479 L 161.484 244.46 L 163.592 245.963 C 164.751 246.79 165.807 247.514 165.94 247.573 C 166.072 247.631 167.319 247.019 168.711 246.212 L 171.243 244.745 L 168.924 243.149 C 166.381 241.399 166.346 241.388 165.372 242.044 M 153.326 243.671 L 150.74 245.101 L 152.77 246.562 L 154.801 248.023 L 156.539 247.304 C 157.495 246.909 158.799 246.31 159.436 245.972 L 160.595 245.359 L 158.47 243.794 C 155.924 241.92 156.468 241.933 153.326 243.671 M 143.3 244.647 C 140.395 246.667 140.414 246.427 143.017 248.35 L 145.129 249.909 L 148.106 248.413 C 149.744 247.59 151.03 246.872 150.964 246.818 C 150.898 246.764 149.692 245.874 148.283 244.841 L 145.721 242.963 L 143.3 244.647 M 178.959 245.75 C 178.07 246.365 177.265 246.946 177.17 247.042 C 176.954 247.257 181.387 250.45 181.902 250.45 C 182.253 250.45 185.811 248.037 185.811 247.798 C 185.811 247.538 181.35 244.596 180.98 244.613 C 180.757 244.623 179.847 245.135 178.959 245.75 M 191.752 245.398 L 190.431 246.198 L 193.21 248.059 L 195.989 249.92 L 197.316 249.2 C 199.041 248.264 199.075 248.338 196.011 246.326 C 192.923 244.299 193.397 244.403 191.752 245.398 M 81.611 246.545 C 80.694 247.052 79.892 247.632 79.827 247.835 C 79.609 248.516 87.123 255.126 87.851 254.894 C 89.525 254.363 92.274 253.127 92.267 252.91 C 92.259 252.693 83.606 245.597 83.372 245.616 C 83.32 245.62 82.527 246.038 81.611 246.545 M 169.652 247.096 L 167.176 248.555 L 169.616 250.33 L 172.056 252.105 L 173.959 251.195 C 175.006 250.695 176.218 250.018 176.653 249.69 L 177.443 249.093 L 175.139 247.482 C 172.148 245.392 172.502 245.417 169.652 247.096 M 158.868 247.56 C 155.904 249.056 155.916 248.84 158.688 250.834 L 160.956 252.466 L 163.031 251.39 C 166.654 249.512 166.608 249.664 164.085 247.863 C 161.47 245.997 161.915 246.022 158.868 247.56 M 149.248 249.231 L 146.337 250.771 L 148.65 252.581 C 151.421 254.749 150.8 254.721 153.886 252.817 C 156.851 250.986 156.846 251.053 154.194 249.15 L 152.159 247.69 L 149.248 249.231 M 138.741 249.473 C 135.844 251.12 135.847 251.108 137.89 252.614 C 141.129 255.004 140.803 254.947 143.172 253.536 C 144.334 252.844 145.349 252.173 145.428 252.045 C 145.548 251.852 141.078 248.266 140.8 248.333 C 140.75 248.345 139.824 248.858 138.741 249.473 M 184.993 250.039 C 183.925 250.804 183.178 251.541 183.333 251.678 C 183.961 252.231 193.515 258.784 193.693 258.784 C 194.173 258.784 197.787 256.395 197.65 256.168 C 197.504 255.925 187.224 248.649 187.027 248.649 C 186.976 248.649 186.061 249.274 184.993 250.039 M 198.907 249.702 C 197.072 250.643 197.112 250.813 199.541 252.396 L 201.777 253.853 L 202.986 253.152 C 204.678 252.171 204.639 252.031 202.256 250.465 L 200.135 249.072 L 198.907 249.702 M 176.182 251.371 C 173.337 252.915 173.328 252.976 175.676 254.738 C 178.742 257.04 178.507 257.019 181.12 255.233 C 183.929 253.314 183.925 253.549 181.187 251.689 C 178.433 249.819 178.979 249.854 176.182 251.371 M 164.759 251.86 L 162.119 253.282 L 164.462 255.02 C 165.751 255.975 166.912 256.757 167.043 256.757 C 167.434 256.757 171.96 253.995 171.95 253.762 C 171.941 253.567 168.537 251.02 167.736 250.611 C 167.551 250.515 166.211 251.078 164.759 251.86 M 154.771 253.7 L 152.278 255.324 L 154.824 257.24 L 157.371 259.157 L 160.265 257.535 C 163.739 255.587 163.7 255.958 160.659 253.801 C 157.66 251.673 157.877 251.677 154.771 253.7 M 144.504 254.171 C 141.777 255.859 141.783 255.562 144.429 257.517 C 147.045 259.45 146.707 259.436 149.346 257.73 L 151.499 256.338 L 150.496 255.534 C 149.945 255.092 148.881 254.289 148.132 253.749 L 146.772 252.768 L 144.504 254.171 M 223.761 263.345 L 236.817 272.128 L 235.986 272.804 C 235.529 273.176 234.276 274.026 233.202 274.694 L 231.25 275.909 L 217.492 266.417 C 209.924 261.197 203.734 256.85 203.734 256.757 C 203.74 255.868 209.027 253.469 209.829 253.991 C 210.311 254.304 216.581 258.514 223.761 263.345 M 90.976 255.023 C 89.822 255.528 88.8 256.02 88.705 256.115 C 88.464 256.355 95.039 262.419 96.191 263.02 C 97.812 263.866 101.018 263.132 102.792 261.51 C 103.11 261.22 94.169 254.044 93.532 254.079 C 93.28 254.092 92.13 254.517 90.976 255.023 M 182.323 255.933 C 179.556 257.79 179.481 257.509 183.527 260.448 C 187.433 263.284 186.872 263.215 189.987 261.248 L 192.505 259.658 L 188.752 257.025 C 184.316 253.913 185.13 254.051 182.323 255.933 M 170.502 256.239 L 168.2 257.703 L 169.32 258.537 C 175.769 263.343 180.89 266.843 181.204 266.659 C 183.937 265.055 185.803 263.713 185.58 263.512 C 184.492 262.526 173.445 254.734 173.161 254.752 C 172.965 254.765 171.768 255.434 170.502 256.239 M 207.325 255.952 L 206.034 256.796 L 207.325 257.729 C 210.388 259.943 210.158 259.887 211.765 258.823 L 213.206 257.869 L 211.056 256.468 C 208.552 254.837 208.945 254.892 207.325 255.952 M 161.243 258.382 L 158.465 259.992 L 166.049 265.669 L 173.632 271.346 L 176.523 269.574 C 178.113 268.599 179.371 267.682 179.318 267.537 C 179.176 267.142 164.755 256.756 164.36 256.764 C 164.173 256.768 162.77 257.496 161.243 258.382 M 150.422 258.516 C 149.261 259.255 148.311 259.979 148.311 260.125 C 148.311 260.473 151.891 263.176 152.352 263.176 C 152.807 263.176 156.757 260.713 156.757 260.43 C 156.757 260.24 153.738 257.86 152.872 257.366 C 152.686 257.26 151.584 257.778 150.422 258.516 M 216.196 267.23 C 223.623 272.34 229.707 276.616 229.715 276.732 C 229.749 277.215 196.939 298.338 196.536 298.094 C 196.305 297.953 190.14 293.359 182.837 287.884 L 169.558 277.929 L 170.665 277.229 C 182.997 269.42 201.959 257.802 202.275 257.861 C 202.504 257.904 208.768 262.12 216.196 267.23 M 212.751 259.696 L 211.482 260.567 L 212.751 261.478 C 213.449 261.979 214.695 262.847 215.52 263.406 L 217.019 264.423 L 218.468 263.402 L 219.917 262.381 L 217.231 260.582 C 214.137 258.511 214.401 258.563 212.751 259.696 M 199.739 260.708 C 198.398 261.547 197.373 262.349 197.46 262.49 C 197.661 262.815 207.97 269.932 208.239 269.932 C 208.349 269.932 209.519 269.24 210.838 268.395 L 213.237 266.857 L 211.433 265.597 C 210.44 264.905 207.952 263.178 205.902 261.761 L 202.176 259.183 L 199.739 260.708 M 146.309 263.522 C 145.301 264.078 144.415 264.594 144.341 264.668 C 144.164 264.845 148.653 268.243 149.063 268.243 C 149.235 268.243 150.207 267.649 151.222 266.922 L 153.067 265.6 L 151.052 264.05 C 148.677 262.223 148.669 262.222 146.309 263.522 M 193.172 264.776 L 190.568 266.374 L 196.338 270.175 C 199.511 272.266 202.279 273.876 202.49 273.752 C 202.7 273.629 203.824 272.932 204.988 272.204 L 207.104 270.879 L 205.832 269.966 C 203.491 268.284 196.013 263.176 195.894 263.177 C 195.83 263.177 194.605 263.897 193.172 264.776 M 219.519 264.117 C 217.918 265.284 217.802 265.051 221.108 267.314 C 224.35 269.534 224.253 269.51 226.028 268.497 C 227.747 267.516 227.855 267.71 224.24 265.278 C 220.616 262.839 221.107 262.96 219.519 264.117 M 158.024 265.58 C 156.362 266.436 156.367 266.449 159.15 268.531 L 161.543 270.322 L 162.882 269.436 L 164.221 268.55 L 162.094 266.999 C 160.924 266.147 159.814 265.332 159.628 265.188 C 159.443 265.045 158.72 265.222 158.024 265.58 M 152.196 267.759 C 149.958 269.306 149.941 269.214 152.867 271.416 C 156.197 273.923 156.057 273.896 158.246 272.443 C 160.58 270.893 160.656 271.184 157.258 268.666 C 153.938 266.205 154.339 266.277 152.196 267.759 M 187.081 268.526 C 184.676 270.061 184.442 269.585 189.29 273.035 C 191.557 274.649 194.02 276.415 194.764 276.958 L 196.115 277.947 L 198.588 276.358 L 201.061 274.769 L 195.277 271 C 192.097 268.926 189.387 267.243 189.257 267.259 C 189.127 267.275 188.148 267.846 187.081 268.526 M 211.86 269.233 L 209.417 270.857 L 211.043 272.03 C 211.937 272.675 213.383 273.685 214.256 274.274 L 215.844 275.347 L 218.233 273.801 C 221.028 271.993 221.088 272.256 217.292 269.655 L 214.303 267.608 L 211.86 269.233 M 227.121 269.216 C 225.239 270.385 225.215 270.355 230.92 274.048 C 231.116 274.174 232.011 273.82 232.909 273.261 L 234.542 272.244 L 232.389 270.807 C 228.315 268.087 228.735 268.214 227.121 269.216 M 164.063 270.138 C 162.52 271.186 162.425 270.949 165.243 273.081 L 167.647 274.9 L 168.956 274.19 C 170.647 273.272 170.683 273.366 167.779 271.18 L 165.288 269.305 L 164.063 270.138 M 180.862 272.393 L 178.11 274.129 L 183.36 278.281 C 189.512 283.145 188.5 282.881 192.094 280.562 L 194.993 278.692 L 189.425 274.65 C 186.362 272.427 183.802 270.619 183.736 270.632 C 183.669 270.646 182.376 271.438 180.862 272.393 M 205.655 273.216 L 203.371 274.767 L 206.577 276.91 C 208.34 278.089 209.853 279.054 209.939 279.054 C 210.398 279.054 214.497 276.239 214.361 276.018 C 214.185 275.734 208.234 271.608 208.051 271.643 C 207.989 271.655 206.911 272.363 205.655 273.216 M 159.455 273.192 C 158.435 273.87 157.525 274.491 157.432 274.574 C 157.251 274.733 158.524 275.824 160.524 277.223 L 161.757 278.086 L 163.396 277.246 C 166.612 275.596 166.598 275.685 163.933 273.709 C 161.129 271.63 161.704 271.697 159.455 273.192 M 219.389 274.579 L 216.987 276.182 L 219.742 278.091 L 222.497 280 L 224.931 278.476 C 227.887 276.626 227.902 276.899 224.727 274.747 C 221.599 272.625 222.282 272.646 219.389 274.579 M 174.207 276.562 L 171.894 278.078 L 177.248 282.105 C 183.396 286.729 182.792 286.525 185.446 284.882 C 188.043 283.274 188.326 283.805 182.348 279.08 C 176.412 274.389 177.168 274.623 174.207 276.562 M 199.54 277.226 L 197.228 278.777 L 200.364 281.065 L 203.501 283.353 L 205.889 281.831 C 207.202 280.993 208.401 280.199 208.551 280.066 C 208.804 279.843 202.685 275.676 202.105 275.676 C 201.965 275.676 200.811 276.373 199.54 277.226 M 210.386 280.368 C 207.644 282.175 205.246 283.808 205.057 283.997 C 204.825 284.229 205.578 284.962 207.389 286.265 L 210.063 288.191 L 215.668 284.552 C 218.75 282.55 221.27 280.836 221.267 280.743 C 221.258 280.482 216.013 277.023 215.673 277.055 C 215.507 277.07 213.128 278.561 210.386 280.368 M 193.122 281.369 C 189.606 283.677 189.609 283.216 193.093 285.946 L 195.984 288.211 L 199.006 286.268 C 202.664 283.916 202.662 284.312 199.028 281.654 L 196.028 279.461 L 193.122 281.369 M 186.578 285.6 C 183.97 287.327 183.907 287.015 187.386 289.613 L 190.312 291.799 L 192.466 290.448 C 193.651 289.705 194.577 288.985 194.523 288.848 C 194.43 288.609 189.721 284.804 189.02 284.401 C 188.834 284.294 187.735 284.834 186.578 285.6 M 197.328 288.794 C 194.279 290.778 191.833 292.552 191.892 292.737 C 192.093 293.369 196.762 296.64 197.215 296.466 C 197.661 296.295 208.006 289.636 208.568 289.159 C 208.904 288.873 203.972 285.122 203.312 285.162 C 203.07 285.176 200.377 286.811 197.328 288.794" stroke-linecap="round"/>
</g>
		<g transform="matrix(1 0 0 1 1.544 12.0371)" id="path4">
<path style="stroke: none; stroke-width: 1; stroke-dasharray: none; stroke-linecap: butt; stroke-dashoffset: 0; stroke-linejoin: miter; stroke-miterlimit: 4; is-custom-font: none; font-file-url: none; fill: rgb(168,140,140); fill-rule: evenodd; opacity: 1;" transform=" translate(-201.544, -205.2804)" d="M 219.354 26.264 C 220.429 26.331 222.101 26.33 223.07 26.262 C 224.038 26.194 223.159 26.139 221.115 26.14 C 219.071 26.141 218.278 26.196 219.354 26.264 M 213.095 26.59 C 213.515 26.671 214.124 26.668 214.447 26.583 C 214.77 26.499 214.426 26.433 213.682 26.437 C 212.939 26.44 212.675 26.509 213.095 26.59 M 227.449 26.584 C 227.774 26.669 228.307 26.669 228.632 26.584 C 228.957 26.499 228.691 26.43 228.041 26.43 C 227.39 26.43 227.124 26.499 227.449 26.584 M 251.462 54.223 C 251.464 55.524 251.525 56.014 251.598 55.313 C 251.671 54.612 251.67 53.548 251.595 52.949 C 251.521 52.349 251.461 52.922 251.462 54.223 M 107.77 52.872 C 107.306 53.137 107.078 53.354 107.264 53.354 C 107.449 53.354 107.981 53.137 108.446 52.872 C 108.91 52.606 109.139 52.389 108.953 52.389 C 108.767 52.389 108.235 52.606 107.77 52.872 M 103.378 54.899 C 102.914 55.164 102.686 55.381 102.872 55.381 C 103.057 55.381 103.59 55.164 104.054 54.899 C 104.519 54.633 104.747 54.416 104.561 54.416 C 104.375 54.416 103.843 54.633 103.378 54.899 M 98.986 56.926 C 98.522 57.191 98.294 57.408 98.48 57.408 C 98.666 57.408 99.198 57.191 99.662 56.926 C 100.127 56.66 100.355 56.443 100.169 56.443 C 99.983 56.443 99.451 56.66 98.986 56.926 M 251.459 58.784 C 251.459 59.992 251.521 60.486 251.596 59.882 C 251.671 59.278 251.671 58.29 251.596 57.686 C 251.521 57.082 251.459 57.576 251.459 58.784 M 90.456 61.17 C 89.388 61.722 88.514 62.249 88.514 62.341 C 88.514 62.434 89.426 62.049 90.541 61.486 C 91.655 60.924 92.568 60.389 92.568 60.299 C 92.568 60.074 92.63 60.048 90.456 61.17 M 51.161 86.909 L 50.169 88.007 L 51.267 87.014 C 52.29 86.09 52.52 85.811 52.259 85.811 C 52.201 85.811 51.707 86.305 51.161 86.909 M 46.445 91.301 L 43.75 94.088 L 46.537 91.393 C 48.07 89.911 49.324 88.657 49.324 88.606 C 49.324 88.359 48.948 88.712 46.445 91.301 M 244.349 105.068 C 244.349 105.904 244.415 106.246 244.495 105.828 C 244.576 105.41 244.576 104.726 244.495 104.307 C 244.415 103.889 244.349 104.231 244.349 105.068 M 33.717 106.672 C 31.908 109.426 31.685 109.797 31.842 109.797 C 31.99 109.797 32.467 109.117 34.272 106.334 C 34.604 105.823 34.802 105.405 34.712 105.405 C 34.623 105.405 34.175 105.976 33.717 106.672 M 291.723 132.432 C 292.449 133.176 293.119 133.784 293.211 133.784 C 293.304 133.784 292.787 133.176 292.061 132.432 C 291.335 131.689 290.665 131.081 290.572 131.081 C 290.479 131.081 290.997 131.689 291.723 132.432 M 290.864 133.193 C 291.693 134.075 292.415 134.797 292.469 134.797 C 292.723 134.797 292.454 134.494 290.963 133.094 L 289.358 131.588 L 290.864 133.193 M 296.392 146.284 C 296.392 147.492 296.453 147.986 296.528 147.382 C 296.603 146.778 296.603 145.79 296.528 145.186 C 296.453 144.582 296.392 145.076 296.392 146.284 M 19.68 148.818 C 19.684 149.561 19.753 149.825 19.834 149.405 C 19.914 148.985 19.911 148.376 19.827 148.053 C 19.742 147.73 19.676 148.074 19.68 148.818 M 288.937 150.169 C 288.94 150.912 289.009 151.176 289.09 150.756 C 289.171 150.336 289.168 149.728 289.083 149.405 C 288.999 149.082 288.933 149.426 288.937 150.169 M 19.342 156.926 C 19.346 157.669 19.415 157.933 19.496 157.513 C 19.577 157.093 19.573 156.485 19.489 156.162 C 19.404 155.839 19.338 156.182 19.342 156.926 M 19.696 162.5 C 19.696 163.522 19.759 163.94 19.837 163.429 C 19.914 162.918 19.914 162.082 19.837 161.571 C 19.759 161.06 19.696 161.478 19.696 162.5 M 138.254 176.689 C 138.254 177.34 138.324 177.606 138.409 177.28 C 138.494 176.955 138.494 176.423 138.409 176.098 C 138.324 175.773 138.254 176.039 138.254 176.689 M 363.514 182.601 C 363.978 182.867 364.51 183.084 364.696 183.084 C 364.882 183.084 364.654 182.867 364.189 182.601 C 363.725 182.336 363.193 182.119 363.007 182.119 C 362.821 182.119 363.049 182.336 363.514 182.601 M 369.595 185.596 C 369.595 185.689 370.051 186.09 370.608 186.486 C 371.166 186.883 371.622 187.132 371.622 187.039 C 371.622 186.946 371.166 186.546 370.608 186.149 C 370.051 185.752 369.595 185.503 369.595 185.596 M 375.338 190.646 C 375.338 190.704 375.832 191.198 376.436 191.744 L 377.534 192.736 L 376.542 191.639 C 375.617 190.615 375.338 190.385 375.338 190.646 M 379.754 196.791 C 379.754 196.976 379.971 197.508 380.236 197.973 C 380.502 198.438 380.719 198.666 380.719 198.48 C 380.719 198.294 380.502 197.762 380.236 197.297 C 379.971 196.833 379.754 196.605 379.754 196.791 M 116.892 197.571 C 116.892 197.866 122.782 202.027 123.2 202.027 C 123.344 202.027 122.25 201.187 120.768 200.161 C 119.287 199.135 117.808 198.072 117.483 197.8 C 117.158 197.527 116.892 197.424 116.892 197.571 M 34.018 205.431 C 34.354 206.003 34.844 206.649 35.108 206.867 C 35.372 207.085 35.162 206.617 34.641 205.828 C 33.547 204.17 33.116 203.895 34.018 205.431 M 132.769 208.709 C 132.974 209.132 133.273 209.397 133.434 209.298 C 133.595 209.199 133.785 209.295 133.858 209.512 C 133.93 209.729 134.248 209.945 134.564 209.992 C 134.88 210.038 135.051 209.935 134.944 209.762 C 134.838 209.59 134.625 209.526 134.472 209.621 C 134.318 209.716 134.097 209.544 133.98 209.24 C 133.863 208.936 133.672 208.782 133.556 208.899 C 133.439 209.016 133.13 208.847 132.869 208.525 C 132.445 208.001 132.434 208.02 132.769 208.709 M 383.564 212.838 C 383.564 214.417 383.622 215.063 383.693 214.274 C 383.764 213.484 383.764 212.192 383.693 211.402 C 383.622 210.612 383.564 211.258 383.564 212.838 M 218.042 240.963 L 217.399 241.723 L 218.137 241.099 C 218.554 240.747 219.056 240.585 219.288 240.729 C 219.55 240.891 219.612 240.842 219.458 240.593 C 219.105 240.021 218.764 240.11 218.042 240.963 M 216.216 242.041 C 216.216 242.494 216.341 242.942 216.493 243.037 C 216.645 243.131 216.704 242.76 216.623 242.212 C 216.446 241.004 216.216 240.908 216.216 242.041 M 250.933 250.915 C 251.353 250.995 251.961 250.992 252.284 250.908 C 252.607 250.823 252.264 250.757 251.52 250.761 C 250.777 250.765 250.513 250.834 250.933 250.915 M 82.77 251.119 C 82.77 251.177 83.264 251.671 83.868 252.217 L 84.966 253.209 L 83.974 252.111 C 83.049 251.088 82.77 250.858 82.77 251.119 M 82.095 252.133 C 82.095 252.191 82.589 252.685 83.193 253.231 L 84.291 254.223 L 83.298 253.125 C 82.373 252.102 82.095 251.872 82.095 252.133 M 86.149 255.849 C 86.149 255.907 86.643 256.401 87.247 256.947 L 88.345 257.939 L 87.352 256.841 C 86.427 255.818 86.149 255.588 86.149 255.849 M 361.137 258.699 L 359.291 260.642 L 361.233 258.795 C 363.038 257.08 363.33 256.757 363.08 256.757 C 363.027 256.757 362.153 257.631 361.137 258.699 M 90.878 258.552 C 90.878 258.61 91.372 259.104 91.976 259.65 L 93.074 260.642 L 92.082 259.544 C 91.157 258.52 90.878 258.291 90.878 258.552 M 91.216 260.642 C 91.847 261.292 92.438 261.824 92.531 261.824 C 92.624 261.824 92.184 261.292 91.554 260.642 C 90.924 259.992 90.332 259.459 90.239 259.459 C 90.146 259.459 90.586 259.992 91.216 260.642 M 61.91 264.02 C 61.913 264.764 61.982 265.028 62.063 264.608 C 62.144 264.187 62.141 263.579 62.056 263.256 C 61.972 262.933 61.906 263.277 61.91 264.02 M 354.054 265.709 C 353.233 266.546 352.638 267.23 352.731 267.23 C 352.824 267.23 353.571 266.546 354.392 265.709 C 355.213 264.873 355.808 264.189 355.715 264.189 C 355.622 264.189 354.875 264.873 354.054 265.709 M 97.555 264.766 C 97.975 264.847 98.583 264.844 98.906 264.759 C 99.229 264.675 98.885 264.608 98.142 264.612 C 97.399 264.616 97.134 264.685 97.555 264.766 M 62.296 272.297 C 62.296 274.992 62.349 276.094 62.413 274.747 C 62.477 273.399 62.477 271.195 62.413 269.848 C 62.349 268.501 62.296 269.603 62.296 272.297 M 339.696 277.226 L 338.682 278.096 L 339.78 277.37 C 340.384 276.97 340.878 276.578 340.878 276.497 C 340.878 276.244 340.735 276.332 339.696 277.226 M 61.91 282.601 C 61.913 283.345 61.982 283.609 62.063 283.189 C 62.144 282.768 62.141 282.16 62.056 281.837 C 61.972 281.514 61.906 281.858 61.91 282.601 M 330.321 282.964 C 329.058 283.649 329.135 283.934 330.405 283.277 C 330.963 282.989 331.419 282.681 331.419 282.593 C 331.419 282.375 331.383 282.388 330.321 282.964 M 326.605 284.991 C 325.342 285.676 325.419 285.961 326.689 285.304 C 327.247 285.016 327.703 284.708 327.703 284.62 C 327.703 284.402 327.666 284.415 326.605 284.991 M 61.572 286.993 C 61.575 287.736 61.645 288.001 61.725 287.581 C 61.806 287.16 61.803 286.552 61.719 286.229 C 61.634 285.906 61.568 286.25 61.572 286.993 M 323.311 286.655 C 322.846 286.921 322.618 287.138 322.804 287.138 C 322.99 287.138 323.522 286.921 323.986 286.655 C 324.451 286.39 324.679 286.173 324.493 286.173 C 324.307 286.173 323.775 286.39 323.311 286.655 M 61.227 290.878 C 61.227 291.529 61.297 291.795 61.382 291.47 C 61.467 291.144 61.467 290.612 61.382 290.287 C 61.297 289.962 61.227 290.228 61.227 290.878 M 60.889 294.595 C 60.889 295.245 60.959 295.511 61.044 295.186 C 61.129 294.861 61.129 294.329 61.044 294.003 C 60.959 293.678 60.889 293.944 60.889 294.595 M 278.632 298.549 C 279.05 298.63 279.734 298.63 280.152 298.549 C 280.57 298.469 280.228 298.403 279.392 298.403 C 278.556 298.403 278.214 298.469 278.632 298.549 M 252.135 298.902 C 256.374 298.955 263.216 298.955 267.337 298.902 C 271.459 298.848 267.99 298.804 259.628 298.804 C 251.267 298.804 247.895 298.848 252.135 298.902 M 240.456 299.225 C 240.874 299.305 241.558 299.305 241.976 299.225 C 242.394 299.144 242.052 299.079 241.216 299.079 C 240.38 299.079 240.038 299.144 240.456 299.225 M 60.214 301.689 C 60.214 302.34 60.283 302.606 60.368 302.28 C 60.453 301.955 60.453 301.423 60.368 301.098 C 60.283 300.773 60.214 301.039 60.214 301.689 M 59.876 305.068 C 59.876 305.718 59.945 305.984 60.03 305.659 C 60.115 305.334 60.115 304.802 60.03 304.476 C 59.945 304.151 59.876 304.417 59.876 305.068 M 59.551 309.122 C 59.551 309.958 59.617 310.3 59.698 309.882 C 59.778 309.464 59.778 308.78 59.698 308.361 C 59.617 307.943 59.551 308.285 59.551 309.122 M 199.747 312.539 C 198.595 313.276 198.222 313.772 199.24 313.212 C 200.015 312.786 201.229 311.847 201.014 311.841 C 200.921 311.838 200.351 312.152 199.747 312.539 M 59.214 313.851 C 59.214 314.688 59.28 315.03 59.36 314.611 C 59.441 314.193 59.441 313.509 59.36 313.091 C 59.28 312.673 59.214 313.015 59.214 313.851 M 58.915 322.466 C 58.916 324.882 58.969 325.826 59.035 324.564 C 59.1 323.302 59.099 321.325 59.034 320.172 C 58.968 319.018 58.914 320.051 58.915 322.466 M 187.82 321.875 L 186.655 323.142 L 187.922 321.978 C 189.101 320.894 189.345 320.608 189.087 320.608 C 189.03 320.608 188.46 321.178 187.82 321.875 M 160.381 324.23 C 160.981 324.305 162.045 324.306 162.746 324.233 C 163.447 324.16 162.956 324.099 161.655 324.097 C 160.355 324.096 159.781 324.156 160.381 324.23 M 58.888 328.885 C 58.89 330 58.953 330.415 59.029 329.808 C 59.104 329.201 59.102 328.289 59.025 327.781 C 58.948 327.273 58.887 327.77 58.888 328.885 M 173.047 339.611 C 171.814 341.432 171.547 341.892 171.723 341.892 C 171.8 341.892 172.419 341.056 173.098 340.034 C 173.776 339.012 174.261 338.176 174.175 338.176 C 174.089 338.176 173.581 338.822 173.047 339.611 M 158.604 359.544 L 156.588 361.655 L 158.699 359.639 C 159.861 358.53 160.811 357.58 160.811 357.527 C 160.811 357.278 160.477 357.583 158.604 359.544 M 142.821 370.631 C 142.124 370.999 141.554 371.375 141.554 371.468 C 141.554 371.56 142.162 371.325 142.905 370.946 C 143.649 370.567 144.257 370.184 144.257 370.094 C 144.257 369.873 144.254 369.874 142.821 370.631 M 77.703 375.169 C 78.333 375.819 78.925 376.351 79.018 376.351 C 79.111 376.351 78.671 375.819 78.041 375.169 C 77.41 374.519 76.818 373.986 76.726 373.986 C 76.633 373.986 77.072 374.519 77.703 375.169 M 133.784 375.169 C 132.948 375.617 132.416 375.983 132.601 375.983 C 132.787 375.983 133.623 375.617 134.459 375.169 C 135.296 374.721 135.828 374.355 135.642 374.355 C 135.456 374.355 134.62 374.721 133.784 375.169 M 105.659 384.36 C 106.077 384.441 106.761 384.441 107.179 384.36 C 107.597 384.28 107.255 384.214 106.419 384.214 C 105.583 384.214 105.241 384.28 105.659 384.36" stroke-linecap="round"/>
</g>
		<g transform="matrix(1 0 0 1 12.3505 -28.9134)" id="path5">
<path style="stroke: none; stroke-width: 1; stroke-dasharray: none; stroke-linecap: butt; stroke-dashoffset: 0; stroke-linejoin: miter; stroke-miterlimit: 4; is-custom-font: none; font-file-url: none; fill: rgb(194,249,112); fill-rule: evenodd; opacity: 1;" transform=" translate(-212.3505, -164.3298)" d="M 162.213 133.442 C 163.233 134.822 163.516 138.451 162.7 139.695 C 162.087 140.632 162.28 140.732 163.449 140.083 C 166.687 138.287 166.015 133.537 162.397 132.644 L 161.45 132.41 L 162.213 133.442 M 159.533 133.298 C 157.185 134.942 157.246 138.297 159.651 139.883 C 160.895 140.703 162.147 140.815 161.369 140.037 C 160.203 138.871 159.816 135.335 160.637 133.361 C 160.942 132.629 160.521 132.605 159.533 133.298 M 165.268 139.434 L 163.852 142.213 L 164.897 142.753 C 165.471 143.05 165.985 143.244 166.038 143.184 C 166.091 143.124 166.551 142.238 167.059 141.216 C 167.567 140.194 168.199 139.112 168.463 138.812 C 168.89 138.325 168.833 138.243 167.945 138.065 C 167.367 137.95 166.891 137.611 166.815 137.261 C 166.73 136.868 166.185 137.634 165.268 139.434 M 169.595 138.515 C 170.028 138.795 169.942 139.134 169.003 140.85 C 167.445 143.7 167.747 144.932 170.007 144.932 C 170.751 144.932 171.373 145.268 172.193 146.113 C 172.971 146.914 173.77 147.363 174.677 147.508 C 175.412 147.625 176.014 147.906 176.014 148.131 C 176.014 148.468 177.353 149.324 177.881 149.324 C 177.961 149.324 178.33 148.73 178.7 148.004 C 179.071 147.278 179.527 146.632 179.715 146.568 C 179.908 146.503 179.708 145.734 179.252 144.788 L 178.449 143.123 L 177.395 145.21 C 176.206 147.566 175.484 147.85 174.349 146.407 C 173.549 145.39 173.353 141.985 174.054 141.284 C 174.598 140.74 174.159 140.772 173.022 141.36 C 172.108 141.832 171.284 143.134 171.284 144.104 C 171.284 144.374 171.127 144.595 170.935 144.595 C 170.247 144.595 170.242 143.643 170.924 142.525 C 172.084 140.623 171.318 138.162 169.573 138.181 C 169.166 138.185 169.169 138.239 169.595 138.515 M 175.1 141.365 C 175.826 142.091 175.832 142.849 175.117 143.639 C 174.592 144.219 174.601 144.257 175.263 144.257 C 177.448 144.257 178.245 143.181 176.943 141.99 C 175.936 141.068 174.223 140.487 175.1 141.365 M 178.885 142.568 C 178.77 142.753 178.884 142.905 179.138 142.905 C 179.392 142.905 180.066 143.567 180.636 144.375 C 181.935 146.219 182.833 146.494 184.051 145.422 C 184.899 144.675 184.915 144.615 184.268 144.605 C 183.884 144.599 183.099 144.063 182.523 143.412 C 181.462 142.213 179.4 141.734 178.885 142.568 M 184.537 147.523 C 183.046 148.123 182.751 150.96 184.037 152.333 C 185.092 153.459 187.037 154.28 186.166 153.231 C 185.555 152.494 185.149 149.45 185.498 148.226 C 185.765 147.292 185.533 147.122 184.537 147.523 M 187.179 148.186 C 187.702 149.561 187.659 153.07 187.115 153.415 C 186.76 153.639 186.797 153.707 187.273 153.711 C 188.192 153.719 189.865 151.886 189.865 150.871 C 189.865 150.392 190.022 150 190.213 150 C 190.915 150 190.926 151.026 190.236 152.143 C 189.315 153.633 189.338 154.773 190.309 155.684 C 191.237 156.556 192.237 156.735 191.549 155.906 C 191.197 155.481 191.306 155.099 192.183 153.687 C 193.836 151.028 193.441 149.662 191.019 149.662 C 190.415 149.662 189.71 149.259 188.954 148.48 C 187.536 147.02 186.682 146.879 187.179 148.186 M 193.826 153.886 L 192.605 156.355 L 193.407 156.556 C 193.873 156.673 194.255 157.053 194.318 157.462 C 194.393 157.953 194.851 157.305 195.834 155.315 L 197.243 152.464 L 196.146 151.941 L 195.048 151.417 L 193.826 153.886 M 196.413 155.721 L 195.022 158.363 L 196.128 158.891 L 197.235 159.419 L 198.449 157.109 C 199.89 154.366 199.869 154.517 198.842 154.259 C 198.391 154.146 197.973 153.834 197.913 153.566 C 197.853 153.298 197.178 154.267 196.413 155.721 M 200.282 154.494 C 200.483 154.736 200.566 155.245 200.466 155.626 C 200.056 157.194 201.573 157.802 202.728 156.533 C 203.179 156.039 203.353 155.746 203.116 155.883 C 202.849 156.037 202.313 155.736 201.713 155.093 C 200.764 154.077 199.496 153.546 200.282 154.494 M 206.757 156.423 C 206.478 156.606 205.865 156.675 205.394 156.576 C 204.644 156.42 204.434 156.599 203.712 158.013 C 203.258 158.901 202.844 159.709 202.792 159.807 C 202.396 160.546 205.518 159.598 206.005 158.831 C 206.317 158.341 206.728 157.827 206.918 157.691 C 207.108 157.554 207.144 157.44 206.998 157.438 C 206.852 157.435 206.896 157.128 207.095 156.757 C 207.504 155.992 207.468 155.957 206.757 156.423 M 208.261 160.691 C 206.189 162.927 208.01 166.216 211.32 166.216 C 212.474 166.216 212.784 166.371 213.267 167.189 C 213.876 168.22 215.677 169.257 216.858 169.257 C 217.248 169.257 217.568 169.46 217.568 169.709 C 217.568 170.075 218.874 170.946 219.423 170.946 C 219.497 170.946 220.117 169.882 220.8 168.581 C 222.001 166.296 222.788 165.679 223.184 166.711 C 223.289 166.983 222.885 168.06 222.288 169.105 C 221.004 171.349 221.202 172.415 222.975 172.805 C 224.182 173.07 224.586 172.851 224.06 172.217 C 223.797 171.9 223.911 171.344 224.481 170.16 C 225.693 167.647 224.628 165.878 221.903 165.878 C 220.892 165.878 220.528 165.721 220.334 165.197 C 220.124 164.628 219.904 164.878 218.997 166.718 C 217.776 169.195 217.059 169.499 215.903 168.029 C 215.103 167.012 214.907 163.607 215.608 162.905 C 216.159 162.355 215.709 162.396 214.533 163.004 C 213.957 163.301 213.384 163.991 213.131 164.693 C 212.403 166.704 210.229 166.133 209.672 163.784 C 209.457 162.881 209.476 162.871 211.4 162.77 C 213.731 162.649 214.222 161.755 212.642 160.512 C 211.42 159.551 211.318 159.594 211.318 161.064 C 211.318 162.195 211.218 162.343 210.389 162.438 C 209.364 162.556 209.124 161.731 209.809 160.451 C 210.351 159.439 209.265 159.607 208.261 160.691 M 202.365 160.982 C 202.365 162.241 203.032 162.838 204.44 162.838 C 205.611 162.838 205.782 162.926 205.59 163.429 C 205.421 163.873 205.462 163.925 205.754 163.635 C 206.902 162.496 206.318 160.98 204.73 160.98 C 203.894 160.98 203.019 160.857 202.787 160.706 C 202.51 160.527 202.365 160.622 202.365 160.982 M 216.654 162.986 C 217.38 163.713 217.386 164.47 216.671 165.261 C 216.146 165.84 216.155 165.878 216.818 165.878 C 219.002 165.878 219.799 164.803 218.497 163.611 C 217.49 162.69 215.777 162.109 216.654 162.986 M 230.653 168.803 C 230.882 168.895 231.229 169.565 231.424 170.291 C 231.982 172.362 233.935 172.895 234.831 171.22 C 235.112 170.696 235.105 170.587 234.804 170.773 C 234.566 170.92 233.955 170.528 233.289 169.8 C 232.481 168.918 231.905 168.588 231.204 168.608 C 230.672 168.622 230.424 168.71 230.653 168.803 M 229.266 169.65 C 228.579 170.699 229.043 172.275 230.393 173.479 C 231.418 174.392 232.186 175.917 231.756 176.183 C 231.246 176.498 230.843 176.122 230.585 175.088 C 230.089 173.099 228.385 172.335 227.248 173.591 C 226.567 174.343 226.529 174.702 227.155 174.462 C 227.412 174.364 227.909 174.648 228.26 175.095 C 229.569 176.759 231.305 177.141 232.432 176.014 C 233.483 174.963 233.275 173.815 231.733 172.142 C 230.977 171.322 230.244 170.224 230.105 169.703 L 229.852 168.756 L 229.266 169.65 M 238.322 172.672 C 238.189 172.886 237.624 172.972 237.006 172.872 C 235.975 172.704 235.878 172.785 235.025 174.523 L 234.129 176.351 L 235.223 176.346 C 236.685 176.339 236.924 176.142 237.968 174.071 C 238.748 172.524 238.98 171.607 238.322 172.672 M 239.704 175.755 C 239.842 176.307 239.676 176.983 239.215 177.739 C 237.83 180.01 238.933 182.095 241.519 182.095 C 242.259 182.095 242.959 182.247 243.074 182.432 C 243.509 183.136 243.946 182.7 245.097 180.414 L 246.284 178.058 L 245.239 177.517 C 244.664 177.22 244.155 177.026 244.107 177.087 C 244.059 177.147 243.511 178.162 242.89 179.343 C 241.725 181.556 241.098 182.112 240.473 181.486 C 240.218 181.231 240.422 180.578 241.171 179.251 C 242.704 176.534 242.552 175.686 240.438 175.155 C 239.562 174.936 239.509 174.979 239.704 175.755 M 233.789 177.397 C 233.782 178.544 234.879 179.538 235.867 179.279 C 236.281 179.171 236.812 179.241 237.046 179.436 C 237.366 179.701 237.527 179.57 237.693 178.911 C 238.034 177.551 237.322 176.941 235.711 177.213 C 234.755 177.374 234.293 177.308 234.085 176.979 C 233.879 176.654 233.793 176.776 233.789 177.397 M 251.085 179.876 L 250.686 180.753 L 250.005 180.073 C 247.503 177.57 243.509 182.034 245.937 184.619 C 246.979 185.729 247.326 185.699 247.09 184.522 C 246.514 181.643 249.353 178.172 250.172 180.754 C 250.382 181.414 249.059 184.339 248.131 185.267 C 247.631 185.767 247.682 185.811 248.769 185.811 C 249.619 185.811 249.988 185.977 250.083 186.402 C 250.165 186.772 250.775 185.879 251.712 184.014 C 253.102 181.249 253.166 181.011 252.597 180.692 C 252.26 180.503 251.872 180.044 251.734 179.673 C 251.5 179.039 251.461 179.051 251.085 179.876 M 253.728 181.397 C 253.251 182.288 253.267 182.344 254.175 182.939 C 255.525 183.823 256.808 182.777 256.068 181.394 C 255.614 180.546 254.183 180.548 253.728 181.397 M 251.934 185.082 L 250.692 187.382 L 251.799 187.91 L 252.906 188.438 L 253.818 186.697 C 254.926 184.581 254.932 184.429 253.953 183.51 L 253.177 182.781 L 251.934 185.082 M 255.558 185.353 C 254.103 186.923 254.464 189.026 256.41 190.322 C 257.51 191.055 257.873 191.026 257.451 190.238 C 256.878 189.167 256.636 185.992 257.066 185.188 C 257.646 184.104 256.611 184.217 255.558 185.353 M 258.628 185.051 C 259.116 186.182 259.221 189.844 258.782 190.374 C 258.091 191.206 259.275 191.006 260.297 190.118 C 261.786 188.824 261.818 187.089 260.381 185.651 C 259.095 184.365 258.201 184.059 258.628 185.051 M 261.233 189.515 C 259.886 192.103 258.784 194.297 258.784 194.393 C 258.784 194.633 261.827 196.395 261.975 196.24 C 262.288 195.915 266.892 186.896 266.892 186.609 C 266.892 186.359 264.131 184.769 263.758 184.804 C 263.716 184.808 262.58 186.928 261.233 189.515" stroke-linecap="round"/>
</g>
</g>
</g>
</svg>