<svg id="visual" viewBox="0 0 900 450" width="900" height="450" xmlns="http://www.w3.org/2000/svg" xmlns:xlink="http://www.w3.org/1999/xlink" version="1.1"><path d="M0 332L18.8 336C37.7 340 75.3 348 112.8 355C150.3 362 187.7 368 225.2 364.5C262.7 361 300.3 348 337.8 341.2C375.3 334.3 412.7 333.7 450.2 338.3C487.7 343 525.3 353 562.8 358.7C600.3 364.3 637.7 365.7 675.2 362.7C712.7 359.7 750.3 352.3 787.8 351.8C825.3 351.3 862.7 357.7 881.3 360.8L900 364L900 451L881.3 451C862.7 451 825.3 451 787.8 451C750.3 451 712.7 451 675.2 451C637.7 451 600.3 451 562.8 451C525.3 451 487.7 451 450.2 451C412.7 451 375.3 451 337.8 451C300.3 451 262.7 451 225.2 451C187.7 451 150.3 451 112.8 451C75.3 451 37.7 451 18.8 451L0 451Z" fill="#C2F970" stroke-linecap="round" stroke-linejoin="miter"></path></svg>